<svg xmlns="http://www.w3.org/2000/svg" viewBox="0 0 1920 1080">
    <defs>
        <linearGradient id="prefix__a" class="prefix__prefix__sky" x1="960" y1="1080" x2="960"
            gradientUnits="userSpaceOnUse">
            <stop offset="0" stop-color="#13b4e5" />
            <stop offset=".56" stop-color="#02175b" />
            <stop offset="1" />
        </linearGradient>
    </defs>

    <g class="prefix__prefix__back-towers">
        <path class="prefix__prefix__four"
            d="M1393.39 630.22c-16.52-23.49-37.19-84.7-37-87.42-14.53 46.28-19.91 70.24-37.39 87.42a44.38 44.38 0 017.45-2.59v6.41l8.35 14.66c1.61 49.4 1.61 173.46 0 222.86h43.2c-2.1-53.17-2.76-174.52 0-222.86l8.35-14.66v-6.18a64 64 0 017.04 2.36z"
            style="translate:none;rotate:none;scale:none;transform-origin:0 0" data-svg-origin="1319 542.7999877929688"
            fill="#1d3d6b" opacity=".8" />
        <path class="prefix__prefix__tree"
            d="M1194.59 240.25c-30.8-43.81-69.35-157.94-69-163-27.09 86.31-37.13 131-69.73 163a82.51 82.51 0 0113.88-4.82v11.95l15.58 27.33c3 92.13 3 522.07 0 614.2H1166c-3.91-99.15-5.15-524 0-614.2l15.58-27.33v-11.53a121.92 121.92 0 0113.01 4.4z"
            style="translate:none;rotate:none;scale:none;transform-origin:0 0"
            data-svg-origin="1055.8599853515625 77.25" fill="#1d3d6b" />
        <path class="prefix__prefix__two"
            d="M556.23 532.68c-8.9-12.65-20-45.62-19.94-47.09-7.83 24.93-10.73 37.84-20.14 47.09a23.46 23.46 0 014-1.39v3.45l4.5 7.9c.87 26.61 0 343.7 0 343.7H548s-1.49-317.66 0-343.7l4.5-7.9v-3.33a36.21 36.21 0 013.73 1.27z"
            style="translate:none;rotate:none;scale:none;transform-origin:0 0"
            data-svg-origin="516.1499633789062 485.5899963378906" fill="#1d3d6b" opacity=".8" />
        <path class="prefix__prefix__one"
            d="M1029.59 396.13c-2.64-3.78-5.12-7.71-7.5-11.69-3.61-6.05-7.1-12.5-10.35-18.83-7.44-1.43-15.29-2.52-23.37-3.3v-45.77l13-22.73v-4.06c5.94-.68 9.9-1.35 10.87-1.87-25.66-36.54-57.64-131.23-57.41-135.58l-.3.95c-16.39 46.14-22.94 98.2-57.71 134.65a65.14 65.14 0 0011.55 2.68c-2.09 2.06 12.21 23.92 12.95 26v46.64c-6.67.82-13.19 1.85-19.74 3.1-1.15 2-2.34 3.86-3.56 5.76a138.05 138.05 0 01-19.49 24.09 77.34 77.34 0 019.45-3.62l-9.45 3.62a85.32 85.32 0 0015.12 3.5v4.27l17 29.75c3.28 100.33 3.28 375.71 0 476h87.75c-4-99.54-5.31-375.24-1-457.3q.47-9.43 1-18.75l17-29.75v-5.33c7.73-.87 12.92-1.75 14.19-2.43z"
            style="translate:none;rotate:none;scale:none;transform-origin:0 0"
            data-svg-origin="878.530029296875 152.30003356933594" fill="#1d3d6b" />
    </g>
    <g class="prefix__prefix__house" data-svg-origin="1144.5599365234375 137.94000244140625"
        style="translate:none;rotate:none;scale:none;transform-origin:0 0">
        <g class="prefix__prefix__inner-house" data-svg-origin="1144.5599365234375 137.94000244140625"
            style="translate:none;rotate:none;scale:none;transform-origin:0 0">
            <path class="prefix__prefix__house-2" data-name="house"
                d="M1305.08 327q16.15-1.53 32.5-3.85c-39.76-64.27-72.58-126.22-96.51-185.19-25 57.49-58.58 120.07-96.51 185.19q16 2.36 32.27 3.93c3.52 35.69 2.33 75-1.3 116.24h131.07c-4.04-41.85-5.6-81.25-1.52-116.32z"
                fill="#00246b" />
            <g class="prefix__prefix__shad-grp" opacity=".7">
                <path class="prefix__prefix__roof-back" d="M1144.56 323.13c62 9.13 126.21 9.48 193 0L1245.32 252z"
                    fill="#040433" />
                <path class="prefix__prefix__wall"
                    d="M1306.6 443.3h-131.07c4-45.65 5.07-89 0-127.66h131.07c-5.92 37.84-4.48 81.27 0 127.66z"
                    fill="#4f4e4f" />
                <path class="prefix__prefix__shadow"
                    d="M1306.6 315.64h-131.07c.85 6.42 1.5 13 2 19.65 47-18.44 105.59-12.82 105.59 18.82 0 23.51-1 56.49-2.29 89.19h25.75c-4.46-46.39-5.9-89.82.02-127.66z"
                    opacity=".2" />
                <path class="prefix__prefix__window"
                    d="M1290.71 418.45h-30.83c1.18-16.2-6-59 15.41-64.34 21.43 5.29 14.25 48.2 15.42 64.34z"
                    fill="#e2d600" />
                <path class="prefix__prefix__door-edge"
                    d="M1276.29 354.11a7.44 7.44 0 00-4.21.88c17.15 11.28 10.92 46.47 12 63.27l7.66.19c-1.17-16.45 5.95-58.36-15.45-64.34z"
                    fill="#3a393a" />
                <path class="prefix__prefix__roof"
                    d="M1337.58 323.13a762.43 762.43 0 00-193 0c37.93-65.12 71.56-127.7 96.51-185.19 23.91 58.97 56.73 120.92 96.49 185.19z"
                    fill="#090970" />
                <path class="prefix__prefix__shadow-2" data-name="shadow"
                    d="M1244.83 147c52.36 179.22 14.4 135.15-85.07 149.7q-7.47 13.13-15.2 26.4a762.43 762.43 0 01193 0c-37.7-60.95-69.16-119.83-92.73-176.1z"
                    opacity=".2" />
                <g class="prefix__prefix__briques">
                    <path class="prefix__prefix__brique" d="M1198.85 348c6.3-1.3 20.94-3 27-2.51" fill="none"
                        stroke="#8c8c8c" stroke-linecap="round" stroke-miterlimit="10" stroke-width="4" />
                    <path class="prefix__prefix__brique-2" data-name="brique"
                        d="M1234.43 392.92c4.5-.16 9.19-.69 13.28 0" fill="none" stroke="#8c8c8c" stroke-linecap="round"
                        stroke-miterlimit="10" stroke-width="4" />
                </g>
            </g>
        </g>
    </g>
    <g class="prefix__prefix__big-tower" data-svg-origin="1112.7698974609375 408.8399963378906"
        style="translate:none;rotate:none;scale:none;transform-origin:0 0">
        <g class="prefix__prefix__inner-big-tower" data-svg-origin="1112.7698974609375 408.8399963378906"
            style="translate:none;rotate:none;scale:none;transform-origin:0 0">
            <path class="prefix__prefix__tower"
                d="M1347.22 418.34v20.14q-22-4-43.73-6.43v-20.14q-20.37-2.22-40.56-3V429q-22-.87-43.73-.06v-20.1q-20.35.75-40.56 2.94v20.14q-22 2.38-43.72 6.46v-20.14q-11.1 2.07-22.15 4.58v63.29l35.74 62.71c11.58 193.72 9.14 134.21 0 359.63 56.31 9.82 118.26 9.37 185.11 0-6.9-211.43-6.9-148.2 0-359.63l35.75-62.71v-63.29q-11.1-2.46-22.15-4.48z"
                fill="#00246b" />
            <g class="prefix__prefix__shad-grp-2" data-name="shad-grp" opacity=".7">
                <path class="prefix__prefix__tower-2" data-name="tower"
                    d="M1347.22 418.34v20.14q-22-4-43.73-6.43v-20.14q-20.37-2.22-40.56-3V429q-22-.87-43.73-.06v-20.1q-20.35.75-40.56 2.94v20.14q-22 2.38-43.72 6.46v-20.14q-11.1 2.07-22.15 4.58v63.29l35.74 62.71c11.58 193.72 9.14 134.21 0 359.63 56.31 9.82 118.26 9.37 185.11 0-6.9-211.43-6.9-148.2 0-359.63l35.75-62.71v-63.29q-11.1-2.46-22.15-4.48z"
                    fill="#605f60" />
                <g class="prefix__prefix__briques-2" data-name="briques">
                    <path class="prefix__prefix__brique-3" data-name="brique"
                        d="M1180.87 617a171.22 171.22 0 0129.63-2.45" fill="none" stroke="#8c8c8c"
                        stroke-linecap="round" stroke-miterlimit="10" stroke-width="6.76" />
                    <path class="prefix__prefix__brique-4" data-name="brique"
                        d="M1190.36 698.61a164.94 164.94 0 0128.48-1.73" fill="none" stroke="#8c8c8c"
                        stroke-linecap="round" stroke-miterlimit="10" stroke-width="6.76" />
                    <path class="prefix__prefix__brique-5" data-name="brique"
                        d="M1267.17 671.57a181.63 181.63 0 0131.93 2.15" fill="none" stroke="#8c8c8c"
                        stroke-linecap="round" stroke-miterlimit="10" stroke-width="6.76" />
                </g>
                <path class="prefix__prefix__window-2" data-name="window"
                    d="M1315 641.69h-12.75v-26.87c0-3.52 4.25-12.56 6.37-12.56s6.38 9 6.38 12.56z" fill="#e2d600" />
                <path class="prefix__prefix__shadow-3" data-name="shadow"
                    d="M1369.37 486.11c-64.23-20.14-200.58-17.55-256.6 0l35.74 62.71q1.17 19.6 2.15 39.51c37.15-29.79 126.75-32.7 124.64 22.19-2.06 53.6-2.06 196.27-21.93 304.88a726.11 726.11 0 0080.25-6.95c-6.9-211.43-6.9-148.2 0-359.63z"
                    opacity=".2" />
                <path class="prefix__prefix__col"
                    d="M1333.62 548.82l35.75-62.71c-64.23-20.14-200.58-17.55-256.6 0l35.74 62.71c50.92-16.4 136.79-15.97 185.11 0z"
                    opacity=".2" />
            </g>
            <path class="prefix__prefix__window-edge"
                d="M1308.58 602.26a1.36 1.36 0 00-.75.32c2.24 1.58 5.62 9.1 5.62 12.24v26.87h1.55v-26.87c0-3.52-4.29-12.56-6.42-12.56z"
                fill="#494949" />
        </g>
    </g>
    <g class="prefix__prefix__big-tower-left" data-svg-origin="644.989990234375 238.77000427246094"
        style="translate:none;rotate:none;scale:none;transform-origin:0 0">
        <path class="prefix__prefix__tower-3" data-name="tower"
            d="M797.88 418.59c-33.94-48.27-76.42-174-76.06-179.62C692 334.06 680.91 383.29 645 418.59a90.17 90.17 0 0115.3-5.32v13.17l17.16 30.11c3.31 101.51 3.31 356.42 0 457.92a352.8 352.8 0 0038.54 3.34 251.43 251.43 0 0050.34-3.33c-4.31-109.25-5.68-358.6 0-457.92l17.16-30.11v-12.7a132.12 132.12 0 0114.38 4.84z"
            fill="#00246b" />
        <g class="prefix__prefix__shad-grp-3" data-name="shad-grp" opacity=".5">
            <path class="prefix__prefix__back-roog"
                d="M797.88 418.59l-74.37-52.21L645 418.59c35.21 12.41 146.25 3.52 152.88 0z" fill="#040433" />
            <path class="prefix__prefix__tower-4" data-name="tower"
                d="M783.48 407v19.46l-17.16 30.11c-5.56 93-4.39 349.7 0 457.92-27 4.72-56.78 4.5-88.87 0 3.31-101.5 3.31-356.41 0-457.92l-17.16-30.11v-20.3c0 .54 65.5-36.05 65.5-36.05z"
                fill="#605f60" />
            <g class="prefix__prefix__briques-3" data-name="briques">
                <path class="prefix__prefix__brique-6" data-name="brique" d="M750.78 489.28a82.19 82.19 0 00-14.22-1.17"
                    fill="none" stroke="#8c8c8c" stroke-linecap="round" stroke-miterlimit="10" stroke-width="3.245" />
                <path class="prefix__prefix__brique-7" data-name="brique" d="M746.23 528.46a80.53 80.53 0 00-13.68-.83"
                    fill="none" stroke="#8c8c8c" stroke-linecap="round" stroke-miterlimit="10" stroke-width="3.245" />
                <path class="prefix__prefix__brique-8" data-name="brique" d="M709.35 829.13a87.57 87.57 0 00-15.33 1"
                    fill="none" stroke="#8c8c8c" stroke-linecap="round" stroke-miterlimit="10" stroke-width="3.245" />
            </g>
            <g class="prefix__prefix__windows">
                <path class="prefix__prefix__window-3" data-name="window"
                    d="M757.21 514.25h-5.51v-11.59c0-1.52 1.84-5.42 2.76-5.42s2.75 3.9 2.75 5.42z" fill="#e2d600" />
                <path class="prefix__prefix__window-edge-2" data-name="window-edge"
                    d="M754.46 497.24a.63.63 0 00-.33.13c1 .69 2.42 3.93 2.42 5.29v11.59h.66v-11.59c0-1.52-1.84-5.42-2.75-5.42z"
                    fill="#494949" />
                <path class="prefix__prefix__window-4" data-name="window"
                    d="M735.52 514.25h-6v-12.56c0-1.65 2-5.88 3-5.88s3 4.23 3 5.88z" fill="#e2d600" />
                <path class="prefix__prefix__window-edge-3" data-name="window-edge"
                    d="M732.54 495.81a.68.68 0 00-.36.15c1.05.74 2.63 4.26 2.63 5.73v12.56h.71v-12.56c0-1.69-1.99-5.88-2.98-5.88z"
                    fill="#494949" />
            </g>
            <path class="prefix__prefix__shadow-4" data-name="shadow"
                d="M660.29 426.44c30.83-9.66 96.29-8.42 123.19 0l-17.16 30.11q-.55 9.42-1 19c-17.84-14.3-58.38-15.68-59.84 10.65-1.89 33.53-6.48 310.61 10.52 431.61a347.94 347.94 0 01-38.53-3.34c3.31-101.5 3.31-356.41 0-457.92z"
                opacity=".2" />
            <path class="prefix__prefix__col-2" data-name="col"
                d="M677.45 456.55l-17.16-30.11c30.83-9.66 96.29-8.42 123.19 0l-17.16 30.11c-24.44-7.87-65.67-7.66-88.87 0z"
                opacity=".2" />
            <path class="prefix__prefix__drop-shadow"
                d="M783.48 419.65c-31.32-10-82.14-14.67-123.19 1.08v-16.58l66.46-23.47 56.73 25.13z" opacity=".2" />
            <path class="prefix__prefix__roof-2" data-name="roof"
                d="M721.88 238.77c-2.07.9 41.4 130.62 76 179.82-47.11-19.11-124.61-13.37-152.89 0C680.94 383.26 692 334 721.88 238.77z"
                fill="#090970" />
            <path class="prefix__prefix__shadow-5" data-name="shadow"
                d="M721.43 240.21C670 429.79 694.81 375.73 786.64 400.46a212.8 212.8 0 0011.24 18.13c-47.11-19.11-124.61-13.37-152.89 0 35.76-35.15 46.88-84.1 76.44-178.38z"
                opacity=".2" />
        </g>
    </g>
    <g class="prefix__prefix__big-tower-left-2" data-name="big-tower-left" data-svg-origin="607.6699829101562 336.5"
        style="translate:none;rotate:none;scale:none;transform-origin:0 0">
        <path class="prefix__prefix__tower-5" data-name="tower"
            d="M712.91 460.28c-23.36-33.23-52.6-119.79-52.36-123.64C640 402.1 632.39 436 607.67 460.28a62 62 0 0110.53-3.65v9.06l11.8 20.73c2.28 69.87 2.28 355.6 0 425.48a243.08 243.08 0 0026.52 2.3 174 174 0 0034.66-2.29c-3-75.21-3.91-357.11 0-425.48L703 465.69v-8.74a90.65 90.65 0 019.91 3.33z"
            fill="#00246b" />
        <g class="prefix__prefix__shad-grpe" opacity=".6">
            <path class="prefix__prefix__back-roog-2" data-name="back-roog"
                d="M712.91 460.28l-51.19-35.93-54.05 35.93c24.24 8.56 100.68 2.43 105.24 0z" fill="#040433" />
            <path class="prefix__prefix__tower-6" data-name="tower"
                d="M703 452.3v13.39l-11.81 20.73c-3.83 64-3 351 0 425.48-18.61 3.24-39.09 3.1-61.18 0 2.28-69.88 2.28-355.61 0-425.48l-11.81-20.73v-14c0 .37 45.08-24.82 45.08-24.82z"
                fill="#605f60" />
            <g class="prefix__prefix__briques-4" data-name="briques">
                <path class="prefix__prefix__brique-9" data-name="brique" d="M680.49 509a55.76 55.76 0 00-9.79-.81"
                    fill="none" stroke="#8c8c8c" stroke-linecap="round" stroke-miterlimit="10" stroke-width="2.234" />
                <path class="prefix__prefix__brique-10" data-name="brique" d="M677.35 535.92a54.27 54.27 0 00-9.41-.57"
                    fill="none" stroke="#8c8c8c" stroke-linecap="round" stroke-miterlimit="10" stroke-width="2.234" />
                <path class="prefix__prefix__brique-11" data-name="brique" d="M652 742.89a60.79 60.79 0 00-10.55.71"
                    fill="none" stroke="#8c8c8c" stroke-linecap="round" stroke-miterlimit="10" stroke-width="2.234" />
            </g>
            <path class="prefix__prefix__shadow-6" data-name="shadow"
                d="M618.2 465.69c21.22-6.65 66.28-5.8 84.8 0l-11.81 20.73q-.39 6.48-.71 13.05c-12.28-9.84-40.19-10.79-41.2 7.34-1.28 23.1-4.44 324.09 7.25 407.39a241.89 241.89 0 01-26.53-2.3c2.28-69.88 2.28-355.61 0-425.48z"
                opacity=".2" />
            <path class="prefix__prefix__col-3" data-name="col"
                d="M630 486.42l-11.8-20.73c21.22-6.65 66.28-5.8 84.8 0l-11.81 20.73c-16.83-5.42-45.19-5.28-61.19 0z"
                opacity=".2" />
            <path class="prefix__prefix__drop-shadow-2" data-name="drop-shadow"
                d="M703 461c-21.56-6.87-56.54-10.1-84.8.74v-11.39l45.8-16.17 39 17.31z" opacity=".2" />
            <path class="prefix__prefix__roof-3" data-name="roof"
                d="M660.6 336.5c-1.43.62 28.5 89.91 52.31 123.78-32.42-13.15-85.78-9.2-105.24 0C632.41 436 640 402.05 660.6 336.5z"
                fill="#090970" />
            <path class="prefix__prefix__shadow-7" data-name="shadow"
                d="M660.29 337.49C624.84 468 642 430.78 705.17 447.81c2.62 4.66 5.21 8.88 7.74 12.47-32.42-13.15-85.78-9.2-105.24 0 24.61-24.19 32.27-57.89 52.62-122.79z"
                opacity=".2" />
        </g>
    </g>
    <g class="prefix__prefix__double-tower-left" data-svg-origin="603.39501953125 649.5445556640625"
        style="translate:none;rotate:none;scale:none;transform-origin:0 0">
        <path class="prefix__prefix__back"
            d="M670.58 623.63c-2.36-3.36-4.56-6.86-6.68-10.4-3.21-5.38-6.31-11.11-9.2-16.75-6.62-1.27-13.6-2.24-20.79-2.93v-40.71l11.52-20.21V529c5.28-.6 8.8-1.2 9.67-1.66-22.82-32.5-51.26-116.71-51.06-120.58l-.27.84c-14.57 41-20.4 87.33-51.32 119.75a57.23 57.23 0 0010.26 2.38c-1.86 1.84 10.87 21.28 11.53 23.11v41.49c-5.94.72-11.74 1.63-17.56 2.75-1 1.74-2.08 3.44-3.17 5.13a123.86 123.86 0 01-17.33 21.42 67.46 67.46 0 018.4-3.22l-8.4 3.22a76.69 76.69 0 0013.44 3.11v3.8l15.1 26.46c2.91 89.23 2.91 143.17 0 232.4a312.42 312.42 0 0033.87 2.93 222.11 222.11 0 0044.25-2.92c-3.59-88.53-4.73-142.76-.93-215.74q.42-8.38.91-16.67l15.08-26.46v-4.74c6.93-.8 11.54-1.57 12.68-2.17z"
            fill="#00246b" />
        <g class="prefix__prefix__shad-grpe-2" data-name="shad-grpe" opacity=".75">
            <g class="prefix__prefix__top-tower">
                <path class="prefix__prefix__back-roog-3" data-name="back-roog"
                    d="M655.1 527.35l-49.93-35.05-52.71 35.05c23.64 8.35 98.19 2.37 102.64 0z" fill="#040433" />
                <path class="prefix__prefix__tower-7" data-name="tower"
                    d="M645.43 519.57v13.06l-11.52 20.21v67.74h-59.66v-67.74l-11.53-20.21V519c0 .36 44-24.2 44-24.2z"
                    fill="#605f60" />
                <g class="prefix__prefix__briques-5" data-name="briques">
                    <path class="prefix__prefix__brique-12" data-name="brique" d="M623.48 574.82a55 55 0 00-9.55-.79"
                        fill="none" stroke="#8c8c8c" stroke-linecap="round" stroke-miterlimit="10"
                        stroke-width="2.179" />
                </g>
                <path class="prefix__prefix__window-5" data-name="window"
                    d="M603.43 545.93h-3.49l-1.23-14.29c2-.11 3.81 0 5.51 0z" fill="#e2d600" />
                <path class="prefix__prefix__shadow-8" data-name="shadow"
                    d="M562.72 532.63c20.71-6.49 64.66-5.66 82.71 0l-11.52 20.21V566c-58.95-29.95-38.43 38.63-34.11 54.56h-25.55v-67.72z"
                    opacity=".2" />
                <path class="prefix__prefix__col-4" data-name="col"
                    d="M574.25 552.84l-11.53-20.21c20.71-6.49 64.66-5.66 82.71 0l-11.52 20.21c-16.41-5.28-44.09-5.14-59.66 0z"
                    opacity=".2" />
                <path class="prefix__prefix__drop-shadow-3" data-name="drop-shadow"
                    d="M645.43 528.07c-21-6.7-55.14-9.85-82.71.72v-11.13l44.63-15.76 38.08 16.88z" opacity=".2" />
                <path class="prefix__prefix__roof-4" data-name="roof"
                    d="M604.08 406.63c-1.39.6 27.79 87.69 51 120.72-31.62-12.83-83.66-9-102.64 0 24.15-23.71 31.56-56.79 51.64-120.72z"
                    fill="#090970" />
                <path class="prefix__prefix__shadow-9" data-name="shadow"
                    d="M603.78 407.6c-34.57 127.28-17.88 91 43.77 107.59 2.56 4.55 5.09 8.66 7.55 12.16-31.62-12.83-83.66-9-102.64 0 24-23.59 31.47-56.46 51.32-119.75z"
                    opacity=".2" />
            </g>
            <path class="prefix__prefix__back-roog-4" data-name="back-roog"
                d="M670.58 623.63l-65.38-26.42-69 26.42c30.95 10.92 128.55 3.09 134.38 0z" fill="#040433" />
            <path class="prefix__prefix__tower-8" data-name="tower"
                d="M657.92 613.43v17.11L642.84 657c-4.89 81.75-3.86 137.27 0 232.4-23.77 4.14-49.91 4-78.12 0 2.91-89.23 2.91-143.17 0-232.4l-15.09-26.46V612.7c62.1-11.91 44.85-16.93 108.29.73z"
                fill="#605f60" />
            <g class="prefix__prefix__briques-6" data-name="briques">
                <path class="prefix__prefix__brique-13" data-name="brique" d="M629.18 685.77a72.29 72.29 0 00-12.5-1"
                    fill="none" stroke="#8c8c8c" stroke-linecap="round" stroke-miterlimit="10" stroke-width="2.853" />
                <path class="prefix__prefix__brique-14" data-name="brique" d="M625.17 720.21a70.28 70.28 0 00-12-.73"
                    fill="none" stroke="#8c8c8c" stroke-linecap="round" stroke-miterlimit="10" stroke-width="2.853" />
                <path class="prefix__prefix__brique-15" data-name="brique" d="M592.76 814.37a77.26 77.26 0 00-13.47.91"
                    fill="none" stroke="#8c8c8c" stroke-linecap="round" stroke-miterlimit="10" stroke-width="2.853" />
            </g>
            <g class="prefix__prefix__windows-2" data-name="windows">
                <path class="prefix__prefix__window-6" data-name="window" fill="#e2d600"
                    d="M602.6 647.92l-3.5.04-1.23-18.68 5.51-.04-.78 18.68z" />
                <path class="prefix__prefix__window-7" data-name="window" fill="#e2d600"
                    d="M640.4 653.09l-3.66-.67 8.51-20.01 6.21 1.25-11.06 19.43z" />
                <path class="prefix__prefix__shadow-10" data-name="shadow" opacity=".4"
                    d="M645.25 632.41l-.2.48 5.13 1.04-10.79 18.97 1.01.19 11.06-19.43-6.21-1.25z" />
                <path class="prefix__prefix__window-8" data-name="window" fill="#e2d600"
                    d="M566.77 653.09l3.67-.67-8.52-20.01-6.2 1.25 11.05 19.43z" />
                <path class="prefix__prefix__shadow-11" data-name="shadow" opacity=".4"
                    d="M561.92 632.41l.21.48-5.13 1.04 10.79 18.97-1.02.19-11.05-19.43 6.2-1.25z" />
            </g>
            <path class="prefix__prefix__shadow-12" data-name="shadow"
                d="M549.63 630.54c27.11-8.5 84.65-7.41 108.29 0L642.84 657q-.5 8.28-.91 16.67c-15.68-12.57-51.31-13.78-52.6 9.37-1.64 29.5-5.67 102.92 9.26 209.29a307.59 307.59 0 01-33.87-2.93c2.91-89.23 2.91-143.17 0-232.4z"
                opacity=".2" />
            <path class="prefix__prefix__col-5" data-name="col"
                d="M564.72 657l-15.09-26.46c27.11-8.5 84.65-7.41 108.29 0L642.84 657c-21.49-6.92-57.73-6.74-78.12 0z"
                opacity=".2" />
            <path class="prefix__prefix__drop-shadow-4" data-name="drop-shadow"
                d="M657.92 624.57c-27.53-8.77-72.2-12.9-108.29.94v-14.57c27-1.26 81.56-1 108.29 1.46z" opacity=".2" />
            <g class="prefix__prefix__roof-5" data-name="roof">
                <path class="prefix__prefix__roof-6" data-name="roof"
                    d="M556.69 597.08a125.82 125.82 0 01-20.5 26.55c24.86-11.75 93-16.8 134.39 0a232.39 232.39 0 01-15.88-27.15c-29.53-5.67-65.89-5.67-98.01.6z"
                    fill="#090970" />
                <path class="prefix__prefix__light"
                    d="M660.29 607c-1.86-3.34-3.73-6.85-5.6-10.5-29.53-5.67-65.89-5.67-98 .6-1 1.75-2.09 3.45-3.17 5.13 21.01-8.81 92.56-11.09 106.77 4.77z"
                    fill="#1313a5" />
                <path class="prefix__prefix__shadow-13" data-name="shadow"
                    d="M563.72 595.83c-2.36.38-4.71.79-7 1.25a125.82 125.82 0 01-20.5 26.55c24.86-11.75 93-16.8 134.39 0-2.19-3.12-4.43-6.62-6.68-10.4-70.42-20.08-120.34 12.57-100.21-17.4z"
                    opacity=".2" />
            </g>
        </g>
    </g>
    <g class="prefix__prefix__horizontal-top">
        <g class="prefix__prefix__double-tower-center" data-svg-origin="744.5800170898438 69.93000030517578"
            style="translate:none;rotate:none;scale:none;transform-origin:0 0">
            <path class="prefix__prefix__back-2" data-name="back"
                d="M967.87 430.39c-3.9-5.58-7.57-11.39-11.09-17.27-5.33-8.94-10.48-18.46-15.28-27.82-11-2.11-22.59-3.72-34.53-4.88v-67.61l19.14-33.58v-6c8.76-1 14.62-2 16-2.75-37.9-54-85.15-193.88-84.82-200.31l-.44 1.4c-24.2 68.17-33.88 145.07-85.25 198.93a97 97 0 0017.06 3.95c-3.09 3 18 35.34 19.14 38.39v68.91c-9.86 1.2-19.5 2.72-29.17 4.57-1.7 2.89-3.46 5.71-5.26 8.52a204.58 204.58 0 01-28.79 35.58 112.38 112.38 0 0114-5.34l-14 5.34a126.18 126.18 0 0022.42 5.14v6.31l25.06 44c4.84 148.22 4.84 237.82 0 386a514.85 514.85 0 0056.26 4.86 368.31 368.31 0 0073.51-4.85c-6-147.06-7.86-237.13-1.55-358.38q.69-13.93 1.51-27.69l25.05-44V434c11.49-1.31 19.16-2.61 21.03-3.61z"
                fill="#00246b" />
            <g class="prefix__prefix__shad-grpe-3" data-name="shad-grpe" opacity=".6">
                <path class="prefix__prefix__back-roog-5" data-name="back-roog"
                    d="M942.16 270.47l-82.94-58.22-87.56 58.22c39.28 13.86 163.11 3.93 170.5 0z" fill="#040433" />
                <path class="prefix__prefix__tower-9" data-name="tower"
                    d="M926.11 257.53v21.7L907 312.81v112.51h-99.14V312.81l-19.14-33.58v-22.62c0 .6 73-40.2 73-40.2z"
                    fill="#605f60" />
                <g class="prefix__prefix__briques-7" data-name="briques">
                    <path class="prefix__prefix__brique-16" data-name="brique"
                        d="M889.64 349.31a92.24 92.24 0 00-15.86-1.31" fill="none" stroke="#8c8c8c"
                        stroke-linecap="round" stroke-miterlimit="10" stroke-width="3.62" />
                </g>
                <g class="prefix__prefix__window-9" data-name="window">
                    <path class="prefix__prefix__window-10" data-name="window" fill="#e2d600"
                        d="M904.11 308.21l-3.98-1.03 11.57-26.01 6.02 1.49-13.61 25.55z" />
                    <path class="prefix__prefix__window-11" data-name="window" fill="#e2d600"
                        d="M890.19 304.76l-4.52-.73 8.92-25.68 6.79.85-11.19 25.56z" />
                    <path class="prefix__prefix__window-12" data-name="window" fill="#e2d600"
                        d="M875.54 302.68l-4.4-.07 2.22-26.17 6.57.46-4.39 25.78z" />
                    <path class="prefix__prefix__shadow-14" data-name="shadow" fill="#494949"
                        d="M911.7 281.17l-.09.2 5.09 1.26-13.5 25.35.91.23 13.61-25.55-6.02-1.49z" />
                    <path class="prefix__prefix__shadow-15" data-name="shadow" fill="#494949"
                        d="M894.59 278.35l-.29.81 5.72.72-10.82 24.72.99.16 11.19-25.56-6.79-.85z" />
                    <path class="prefix__prefix__shadow-16" data-name="shadow" fill="#494949"
                        d="M873.36 276.44l-.07.86 5.88.41-4.26 24.96.63.01 4.39-25.78-6.57-.46z" />
                    <path class="prefix__prefix__window-13" data-name="window" fill="#e2d600"
                        d="M810.99 308.21l3.98-1.03-11.57-26.01-6.02 1.49 13.61 25.55z" />
                    <path class="prefix__prefix__window-14" data-name="window" fill="#e2d600"
                        d="M824.91 304.76l4.52-.73-8.92-25.68-6.79.85 11.19 25.56z" />
                    <path class="prefix__prefix__window-15" data-name="window" fill="#e2d600"
                        d="M839.56 302.68l4.4-.07-2.22-26.17-6.57.46 4.39 25.78z" />
                    <path class="prefix__prefix__window-16" data-name="window" fill="#e2d600"
                        d="M856.26 302.72l4.39-.08 1.71-26.43h-7.4l1.3 26.51z" />
                    <path class="prefix__prefix__shadow-17" data-name="shadow" fill="#494949"
                        d="M803.4 281.17l.09.2-5.09 1.26 13.5 25.35-.91.23-13.61-25.55 6.02-1.49z" />
                    <path class="prefix__prefix__shadow-18" data-name="shadow" fill="#494949"
                        d="M820.51 278.35l.29.81-5.72.72 10.82 24.72-.99.16-11.19-25.56 6.79-.85z" />
                    <path class="prefix__prefix__shadow-19" data-name="shadow" fill="#494949"
                        d="M841.74 276.44l.07.86-5.88.41 4.26 24.96-.63.01-4.39-25.78 6.57-.46z" />
                    <path class="prefix__prefix__shadow-20" data-name="shadow" fill="#494949"
                        d="M854.96 276.21l1.3 26.51h.15l-1.11-25.29h6.72l-1.45 25.22.08-.01 1.71-26.43h-7.4z" />
                </g>
                <path class="prefix__prefix__shadow-21" data-name="shadow"
                    d="M788.72 279.23c34.38-10.78 107.39-9.39 137.39 0L907 312.81v21.89c-97.93-49.76-63.84 64.17-56.66 90.62h-42.48V312.81z"
                    opacity=".2" />
                <path class="prefix__prefix__col-6" data-name="col"
                    d="M807.86 312.81l-19.14-33.58c34.38-10.78 107.39-9.39 137.39 0L907 312.81c-27.29-8.81-73.27-8.55-99.14 0z"
                    opacity=".2" />
                <path class="prefix__prefix__drop-shadow-5" data-name="drop-shadow"
                    d="M926.11 271.66c-34.93-11.13-91.61-16.36-137.39 1.2v-18.49l74.12-26.18 63.27 28z" opacity=".2" />
                <path class="prefix__prefix__roof-7" data-name="roof"
                    d="M857.41 69.93c-2.31 1 46.17 145.67 84.75 200.54-52.53-21.31-139-14.9-170.5 0 40.08-39.39 52.4-94.34 85.75-200.54z"
                    fill="#090970" />
                <path class="prefix__prefix__shadow-22" data-name="shadow"
                    d="M856.91 71.54C799.49 283 827.22 222.67 929.63 250.26c4.24 7.56 8.44 14.39 12.53 20.21-52.53-21.31-139-14.9-170.5 0 39.88-39.19 52.28-93.79 85.25-198.93z"
                    opacity=".2" />
                <path class="prefix__prefix__back-roog-6" data-name="back-roog"
                    d="M967.87 430.39l-108.59-43.88-114.64 43.88c51.42 18.15 213.55 5.15 223.23 0z" fill="#040433" />
                <path class="prefix__prefix__tower-10" data-name="tower"
                    d="M946.85 413.45v28.42l-25.05 44c-8.12 135.8-6.41 228 0 386-39.48 6.88-82.91 6.56-129.77 0 4.84-148.22 4.84-237.82 0-386l-25.06-44v-29.63c103.16-19.79 74.5-28.12 179.88 1.21z"
                    fill="#605f60" />
                <g class="prefix__prefix__windows-3" data-name="windows">
                    <path class="prefix__prefix__window-17" data-name="window"
                        d="M912.79 556.49h-8.17v-17.21c0-2.26 2.72-8 4.08-8s4.09 5.79 4.09 8z" fill="#e2d600" />
                    <path class="prefix__prefix__window-edge-4" data-name="window-edge"
                        d="M908.7 531.23a.86.86 0 00-.48.21c1.43 1 3.6 5.83 3.6 7.84v17.21h1v-17.21c-.03-2.28-2.76-8.05-4.12-8.05z"
                        fill="#494949" />
                    <path class="prefix__prefix__window-18" data-name="window"
                        d="M865 556.49h-8.17v-17.21c0-2.26 2.72-8 4.08-8s4.09 5.79 4.09 8z" fill="#e2d600" />
                    <path class="prefix__prefix__window-19" data-name="window"
                        d="M809 556.49h8.17v-17.21c0-2.26-2.73-8-4.09-8s-4.08 5.79-4.08 8z" fill="#e2d600" />
                    <path class="prefix__prefix__window-edge-5" data-name="window-edge"
                        d="M813 531.23a.89.89 0 01.49.21c-1.44 1-3.6 5.83-3.6 7.84v17.21h-1v-17.21c.11-2.28 2.79-8.05 4.11-8.05z"
                        fill="#494949" />
                </g>
                <g class="prefix__prefix__briques-8" data-name="briques">
                    <path class="prefix__prefix__brique-17" data-name="brique"
                        d="M899.11 533.62a120.28 120.28 0 00-20.77-1.71" fill="none" stroke="#8c8c8c"
                        stroke-linecap="round" stroke-miterlimit="10" stroke-width="4.739" />
                    <path class="prefix__prefix__brique-18" data-name="brique"
                        d="M892.45 590.83a115.81 115.81 0 00-20-1.21" fill="none" stroke="#8c8c8c"
                        stroke-linecap="round" stroke-miterlimit="10" stroke-width="4.739" />
                    <path class="prefix__prefix__brique-19" data-name="brique"
                        d="M838.61 747.24a128.31 128.31 0 00-22.38 1.51" fill="none" stroke="#8c8c8c"
                        stroke-linecap="round" stroke-miterlimit="10" stroke-width="4.739" />
                </g>
                <path class="prefix__prefix__shadow-23" data-name="shadow"
                    d="M767 441.87c45-14.12 140.61-12.3 179.88 0l-25.05 44q-.82 13.74-1.51 27.69c-26-20.88-85.24-22.89-87.38 15.56-2.72 49-9.42 171 15.38 347.65a509.36 509.36 0 01-56.32-4.9c4.84-148.22 4.84-237.82 0-386z"
                    opacity=".2" />
                <path class="prefix__prefix__col-7" data-name="col"
                    d="M792 485.83l-25.06-44c45-14.12 140.61-12.3 179.88 0l-25.05 44c-35.67-11.5-95.86-11.19-129.77 0z"
                    opacity=".2" />
                <path class="prefix__prefix__drop-shadow-6" data-name="drop-shadow"
                    d="M946.85 432c-45.72-14.56-119.93-21.42-179.88 1.57v-24.2c44.82-2.09 135.48-1.63 179.88 2.42z"
                    opacity=".2" />
                <path class="prefix__prefix__roof-8" data-name="roof"
                    d="M778.69 386.29a208.66 208.66 0 01-34.05 44.1c41.29-19.51 154.46-27.9 223.23 0-8.54-12.15-17.46-27.68-26.37-45.09-49.05-9.42-109.44-9.42-162.81.99z"
                    fill="#090970" />
                <path class="prefix__prefix__light-2" data-name="light"
                    d="M950.79 402.72q-4.63-8.33-9.3-17.44c-49-9.42-109.44-9.42-162.81 1-1.7 2.91-3.47 5.73-5.26 8.52 34.91-14.59 153.76-18.38 177.37 7.92z"
                    fill="#1313a5" />
                <path class="prefix__prefix__shadow-24" data-name="shadow"
                    d="M790.38 384.21c-3.93.64-7.83 1.32-11.69 2.08a208.66 208.66 0 01-34.05 44.1c41.29-19.51 154.46-27.9 223.23 0-3.63-5.17-7.34-11-11.09-17.27-116.92-33.35-199.85 20.88-166.4-28.91z"
                    opacity=".2" />
            </g>
        </g>
    </g>
    <g class="prefix__prefix__horizontal-bottom-1" data-svg-origin="725.4501342773438 509.3800048828125"
        style="translate:none;rotate:none;scale:none;transform-origin:0 0">
        <g class="prefix__prefix__small-tower" data-svg-origin="947.8399658203125 509.3800048828125"
            style="translate:none;rotate:none;scale:none;transform-origin:0 0">
            <g class="prefix__prefix__inner-small-tower" data-svg-origin="947.8399658203125 509.3800048828125"
                style="translate:none;rotate:none;scale:none;transform-origin:0 0">
                <path class="prefix__prefix__tower-11" data-name="tower"
                    d="M1092.64 515.26v12.43q-13.56-2.49-27-4v-12.41q-12.57-1.36-25.05-1.86v12.43q-13.56-.52-27 0v-12.47q-12.58.47-25.05 1.82v12.44q-13.57 1.47-27 4v-12.45q-6.85 1.29-13.68 2.83v39.09l22.08 38.73c7.15 119.64 5.64 46.38 0 185.61 34.77 6.06 73 5.78 114.32 0-4.26-130.59-4.26-55 0-185.61l22.08-38.73V518q-6.87-1.49-13.7-2.74z"
                    fill="#00246b" />
                <g class="prefix__prefix__shad-grp-4" data-name="shad-grp" opacity=".7">
                    <path class="prefix__prefix__tower-12" data-name="tower"
                        d="M1092.64 515.26v12.43q-13.56-2.49-27-4v-12.41q-12.57-1.36-25.05-1.86v12.43q-13.56-.52-27 0v-12.47q-12.58.47-25.05 1.82v12.44q-13.57 1.47-27 4v-12.45q-6.85 1.29-13.68 2.83v39.09l22.08 38.73c7.15 119.64 5.64 46.38 0 185.61 34.77 6.06 73 5.78 114.32 0-4.26-130.59-4.26-55 0-185.61l22.08-38.73V518q-6.87-1.49-13.7-2.74z"
                        fill="#605f60" />
                    <g class="prefix__prefix__briques-9" data-name="briques">
                        <path class="prefix__prefix__brique-20" data-name="brique"
                            d="M989.9 637.94a107.6 107.6 0 0118.3-1.51" fill="none" stroke="#8c8c8c"
                            stroke-linecap="round" stroke-miterlimit="10" stroke-width="4.175" />
                        <path class="prefix__prefix__brique-21" data-name="brique"
                            d="M995.77 688.35a102.46 102.46 0 0117.59-1.07" fill="none" stroke="#8c8c8c"
                            stroke-linecap="round" stroke-miterlimit="10" stroke-width="4.175" />
                        <path class="prefix__prefix__brique-22" data-name="brique"
                            d="M1043.2 671.65a112.8 112.8 0 0119.72 1.33" fill="none" stroke="#8c8c8c"
                            stroke-linecap="round" stroke-miterlimit="10" stroke-width="4.175" />
                    </g>
                    <path class="prefix__prefix__shadow-25" data-name="shadow"
                        d="M1106.32 557.11c-39.67-12.44-123.88-10.84-158.48 0l22.08 38.73q.72 12.1 1.32 24.4c23-18.4 78.29-20.2 77 13.71-1.27 33.1-1.27 84.71-13.54 151.79a453.27 453.27 0 0049.56-4.29c-4.26-130.59-4.26-55 0-185.61z"
                        opacity=".2" />
                    <path class="prefix__prefix__col-8" data-name="col"
                        d="M1084.24 595.84l22.08-38.73c-39.67-12.44-123.88-10.84-158.48 0l22.08 38.73c31.44-10.13 84.48-9.84 114.32 0z"
                        opacity=".2" />
                </g>
            </g>
        </g>
        <g class="prefix__prefix__main-castle-center">
            <path class="prefix__prefix__wall-2" data-name="wall"
                d="M1171.15 671.35c-.36 6.4-.54 6.6-.9 13-10.48-.6-15.72-.88-26.2-1.4.31-6.4.47-6.59.79-13-9.26-.46-13.89-.68-23.16-1.08-.27 6.4-.41 6.6-.69 13-10.48-.45-15.73-.66-26.21-1 .23-6.4.35-6.6.58-13-9.27-.33-13.9-.49-23.17-.77-.19 6.41-.29 6.61-.48 13-10.49-.32-15.73-.46-26.22-.7.15-6.41.22-6.61.37-13-9.27-.22-13.91-.31-23.18-.47-.1 6.41-.16 6.62-.26 13-10.49-.17-15.74-.24-26.23-.35.06-6.4.09-6.61.16-13-9.27-.09-13.91-.13-23.18-.16 0 6.41 0 6.61-.06 13h-26.22c0-6.41 0-6.61-.06-13-9.27 0-13.91.07-23.18.16.07 6.4.1 6.61.16 13-10.49.11-15.74.18-26.23.35-.1-6.4-.16-6.61-.27-13-9.26.16-13.9.25-23.17.47.15 6.4.22 6.6.37 13-10.49.24-15.73.38-26.22.7-.19-6.41-.29-6.61-.48-13-9.27.28-13.9.44-23.17.77.23 6.41.35 6.61.58 13-10.48.38-15.73.59-26.21 1-.28-6.4-.42-6.6-.69-13-9.27.4-13.9.62-23.16 1.07.32 6.4.48 6.6.79 13-10.48.52-15.72.8-26.2 1.4-.36-6.4-.54-6.6-.9-13-9.36.53-14 .81-23.4 1.4 6.54 104 19.62 246.32 19.62 246.32h429.86s13.08-142.35 19.62-246.32c-9.36-.58-14.04-.86-23.4-1.39z"
                fill="#00246b" />
            <g class="prefix__prefix__shad-grpe-4" data-name="shad-grpe" opacity=".7">
                <path class="prefix__prefix__wall-3" data-name="wall"
                    d="M1171.15 671c-.36 6.4-.54 6.6-.9 13-10.48-.59-15.72-.87-26.2-1.39.31-6.4.47-6.6.79-13-9.26-.46-13.89-.67-23.16-1.07-.27 6.4-.41 6.6-.69 13-10.48-.45-15.73-.66-26.21-1 .23-6.41.35-6.61.58-13-9.27-.34-13.9-.49-23.17-.77-.19 6.41-.29 6.61-.48 13-10.49-.31-15.73-.45-26.22-.69.15-6.41.22-6.61.37-13-9.27-.21-13.91-.3-23.18-.46-.1 6.41-.16 6.61-.26 13-10.49-.18-15.74-.25-26.23-.35.06-6.41.09-6.61.16-13-9.27-.09-13.91-.12-23.18-.15 0 6.41 0 6.61-.06 13h-26.22c0-6.41 0-6.61-.06-13-9.27 0-13.91.06-23.18.15.07 6.41.1 6.61.16 13-10.49.1-15.74.17-26.23.35-.1-6.41-.16-6.61-.27-13-9.26.16-13.9.25-23.17.46.15 6.41.22 6.61.37 13-10.49.24-15.73.38-26.22.69-.19-6.4-.29-6.6-.48-13-9.27.28-13.9.43-23.17.77.23 6.4.35 6.6.58 13-10.48.38-15.73.59-26.21 1-.28-6.4-.42-6.6-.69-13-9.27.4-13.9.61-23.16 1.07.32 6.4.48 6.6.79 13-10.48.52-15.72.8-26.2 1.39-.36-6.4-.54-6.59-.9-13-9.36.53-14 .81-23.4 1.4 6.54 104 19.62 246.32 19.62 246.32h429.86s13.08-142.35 19.62-246.32c-9.36-.62-14.04-.9-23.4-1.4z"
                    fill="#605f60" />
                <g class="prefix__prefix__briques-10" data-name="briques">
                    <path class="prefix__prefix__brique-23" data-name="brique"
                        d="M792.49 754.92a164.44 164.44 0 0130.64-1.44" fill="none" stroke="#8c8c8c"
                        stroke-linecap="round" stroke-miterlimit="10" stroke-width="4" />
                    <path class="prefix__prefix__brique-24" data-name="brique" d="M1109.66 746.5a117 117 0 0115.55.68"
                        fill="none" stroke="#8c8c8c" stroke-linecap="round" stroke-miterlimit="10" stroke-width="4" />
                    <path class="prefix__prefix__brique-25" data-name="brique"
                        d="M1041.91 806.25c8.49-.3 16.41-.07 19.18 0" fill="none" stroke="#8c8c8c"
                        stroke-linecap="round" stroke-miterlimit="10" stroke-width="4" />
                    <path class="prefix__prefix__brique-26" data-name="brique"
                        d="M848 714.75a163.88 163.88 0 0120.08-1.36" fill="none" stroke="#8c8c8c" stroke-linecap="round"
                        stroke-miterlimit="10" stroke-width="4" />
                </g>
                <path class="prefix__prefix__shadow-26" data-name="shadow"
                    d="M1171.15 671.35c-.36 6.4-.54 6.6-.9 13-10.48-.6-15.72-.88-26.2-1.4.31-6.4.47-6.59.79-13-9.26-.46-13.89-.68-23.16-1.08-.27 6.4-.41 6.6-.69 13-10.48-.45-15.73-.66-26.21-1 .23-6.4.35-6.6.58-13-9.27-.33-13.9-.49-23.17-.77-.19 6.41-.29 6.61-.48 13-10.49-.32-15.73-.46-26.22-.7.15-6.41.22-6.61.37-13-9.27-.22-13.91-.31-23.18-.47-.1 6.41-.16 6.62-.26 13-10.49-.17-15.74-.24-26.23-.35.06-6.4.09-6.61.16-13-9.27-.09-13.91-.13-23.18-.16 0 6.41 0 6.61-.06 13h-26.22c0-6.41 0-6.61-.06-13-9.27 0-13.91.07-23.18.16.07 6.4.1 6.61.16 13-10.49.11-15.74.18-26.23.35-.1-6.4-.16-6.61-.27-13-9.26.16-13.9.25-23.17.47.15 6.4.22 6.6.37 13-10.49.24-15.73.38-26.22.7-.19-6.41-.29-6.61-.48-13-9.27.28-13.9.44-23.17.77.23 6.41.35 6.61.58 13-10.48.38-15.73.59-26.21 1-.28-6.4-.42-6.6-.69-13-9.27.4-13.9.62-23.16 1.07.32 6.4.48 6.6.79 13-10.48.52-15.72.8-26.2 1.4-.36-6.4-.54-6.6-.9-13-9.36.53-14 .81-23.4 1.4 6.54 104 19.62 246.32 19.62 246.32H778c-8-90.92 3.62-181.28 70.44-197.55 49.23-12 168.07-10.38 226-.16 81.16 14.31 75 119 67.31 197.71h33.19s13.08-142.35 19.62-246.32c-9.37-.58-14.05-.86-23.41-1.39z"
                    opacity=".2" />
            </g>
        </g>
    </g>
    <g class="prefix__prefix__horizontal-bottom-general" data-svg-origin="-17.1299991607666 545.9400634765625"
        style="translate:none;rotate:none;scale:none;transform-origin:0 0">

        <g class="prefix__prefix__light-radius" style="translate:none;rotate:none;scale:none;transform-origin:0 0"
            data-svg-origin="518.4000244140625 545.9400634765625" opacity=".5">
            <path class="prefix__prefix__inner-light"
                d="M1168.51 874.83h-417c0-115.16 93.35-208.51 208.51-208.51s208.49 93.35 208.49 208.51z" fill="#d9f700"
                opacity=".1" />
            <path class="prefix__prefix__inner-light-2" data-name="inner-light"
                d="M1282.74 916.23C1274.45 745.16 1133.13 609 960 609S645.55 745.16 637.26 916.23z" fill="#d9f700"
                opacity=".1" />
            <path class="prefix__prefix__inner-light-3" data-name="inner-light"
                d="M1401.6 912.15c-39-208.44-221.85-366.21-441.6-366.21S557.36 703.71 518.4 912.15z" fill="#d9f700"
                opacity=".1" />
        </g>
        <g class="prefix__prefix__wall-left" data-svg-origin="527.02001953125 805.7000122070312"
            style="translate:none;rotate:none;scale:none;transform-origin:0 0">
            <path class="prefix__prefix__wall-4" data-name="wall"
                d="M890.37 809.12c-.21 4.89-.31 7.34-.51 12.24-10.92-.45-16.38-.66-27.3-1l.42-12.24c-9.76-.34-14.64-.49-24.4-.77l-.35 12.24c-10.92-.31-16.39-.45-27.31-.68.1-4.9.16-7.35.26-12.25-9.76-.21-14.64-.3-24.4-.46-.07 4.9-.11 7.35-.19 12.25-10.93-.18-16.39-.25-27.32-.35 0-4.9.07-7.34.11-12.24-9.76-.09-14.64-.12-24.4-.16v12.25h-27.32V805.7c-9.76 0-14.64.07-24.4.16.05 4.9.07 7.34.12 12.24-10.93.1-16.4.17-27.33.35-.07-4.9-.11-7.35-.19-12.25-9.76.16-14.64.25-24.4.46.11 4.9.16 7.35.27 12.25-10.93.23-16.39.37-27.32.68l-.41-12.27c-9.76.28-14.64.43-24.39.77l.42 12.24c-10.93.37-16.39.58-27.31 1l-.5-12.24c-10.07.41-15.1.63-25.17 1.11l5.61 118.91c125.74-.6 251.55.5 377.29 0l5.61-118.91c-10.09-.45-15.13-.67-25.19-1.08z"
                fill="#00246b" />
            <g class="prefix__prefix__shad-grpe-5" data-name="shad-grpe" opacity=".8">
                <path class="prefix__prefix__wall-5" data-name="wall"
                    d="M890.37 809.12c-.21 4.89-.31 7.34-.51 12.24-10.92-.45-16.38-.66-27.3-1l.42-12.24c-9.76-.34-14.64-.49-24.4-.77l-.35 12.24c-10.92-.31-16.39-.45-27.31-.68.1-4.9.16-7.35.26-12.25-9.76-.21-14.64-.3-24.4-.46-.07 4.9-.11 7.35-.19 12.25-10.93-.18-16.39-.25-27.32-.35 0-4.9.07-7.34.11-12.24-9.76-.09-14.64-.12-24.4-.16v12.25h-27.32V805.7c-9.76 0-14.64.07-24.4.16.05 4.9.07 7.34.12 12.24-10.93.1-16.4.17-27.33.35-.07-4.9-.11-7.35-.19-12.25-9.76.16-14.64.25-24.4.46.11 4.9.16 7.35.27 12.25-10.93.23-16.39.37-27.32.68l-.41-12.27c-9.76.28-14.64.43-24.39.77l.42 12.24c-10.93.37-16.39.58-27.31 1l-.5-12.24c-10.07.41-15.1.63-25.17 1.11l5.61 118.91c125.74-.6 251.55.5 377.29 0l5.61-118.91c-10.09-.45-15.13-.67-25.19-1.08z"
                    fill="#605f60" />
                <g class="prefix__prefix__briques-11" data-name="briques">
                    <path class="prefix__prefix__brique-27" data-name="brique" fill="none" stroke="#8c8c8c"
                        stroke-linecap="round" stroke-miterlimit="10" stroke-width="1.988"
                        d="M554.19 836.39l13.27-.19" />
                    <path class="prefix__prefix__brique-28" data-name="brique" fill="none" stroke="#8c8c8c"
                        stroke-linecap="round" stroke-miterlimit="10" stroke-width="1.988" d="M647.13 891.73h12.25" />
                    <path class="prefix__prefix__brique-29" data-name="brique" fill="none" stroke="#8c8c8c"
                        stroke-linecap="round" stroke-miterlimit="10" stroke-width="1.988" d="M781.7 836.05l14.64.34" />
                    <path class="prefix__prefix__brique-30" data-name="brique" fill="none" stroke="#8c8c8c"
                        stroke-linecap="round" stroke-miterlimit="10" stroke-width="1.988" d="M827.21 869.2l12.26.42" />
                    <path class="prefix__prefix__brique-31" data-name="brique" fill="none" stroke="#8c8c8c"
                        stroke-linecap="round" stroke-miterlimit="10" stroke-width="1.988"
                        d="M868.06 850.69l13.28.34" />
                </g>
                <path class="prefix__prefix__shadow-27" data-name="shadow"
                    d="M890.37 809.12c-.21 4.89-.31 7.34-.51 12.24-4.26-.18-12.93-.51-16.18-.64 9.53 86.48 5.78 89.42-19.23 92.93-18.88 2.65-239.65-1.63-263.83-1.54-30.78.11-32 10.17-32.52-91l-5.41.22-.5-12.24c-10.07.41-15.1.63-25.17 1.11l5.61 118.91c125.74-.6 251.55.5 377.29 0l5.61-118.91c-10.06-.45-15.1-.67-25.16-1.08z"
                    opacity=".2" />
            </g>
        </g>
        <g class="prefix__prefix__wall-right" data-svg-origin="1004.2000122070312 810.0498657226562"
            style="translate:none;rotate:none;scale:none;transform-origin:0 0">
            <path class="prefix__prefix__wall-6" data-name="wall"
                d="M1029.36 813.47l.5 12.23c10.93-.45 16.39-.65 27.31-1l-.42-12.24c9.76-.33 14.64-.49 24.4-.76.14 4.89.21 7.34.34 12.24 10.93-.31 16.39-.45 27.32-.69-.11-4.9-.16-7.34-.27-12.24 9.76-.22 14.64-.31 24.4-.46l.2 12.24c10.93-.17 16.39-.24 27.32-.34 0-4.9-.07-7.35-.11-12.25 9.76-.09 14.64-.12 24.4-.15v12.25h27.32v-12.25c9.76 0 14.65.06 24.41.15 0 4.9-.07 7.35-.12 12.25 10.93.1 16.4.17 27.32.34l.2-12.24c9.76.15 14.64.24 24.4.46-.11 4.9-.16 7.34-.27 12.24 10.93.24 16.39.38 27.32.69l.35-12.24c9.75.27 14.63.43 24.39.76l-.42 12.24c10.92.38 16.39.58 27.31 1l.5-12.24c10.07.42 15.1.64 25.17 1.11l-5.61 118.92c-125.74-.61-251.56.5-377.3 0Q1007 874 1004.2 814.57c10.06-.47 15.1-.69 25.16-1.1z"
                fill="#00246b" />
            <g class="prefix__prefix__shad-grpe-6" data-name="shad-grpe" opacity=".85">
                <path class="prefix__prefix__wall-7" data-name="wall"
                    d="M1029.36 813.47l.5 12.23c10.93-.45 16.39-.65 27.31-1l-.42-12.24c9.76-.33 14.64-.49 24.4-.76.14 4.89.21 7.34.34 12.24 10.93-.31 16.39-.45 27.32-.69-.11-4.9-.16-7.34-.27-12.24 9.76-.22 14.64-.31 24.4-.46l.2 12.24c10.93-.17 16.39-.24 27.32-.34 0-4.9-.07-7.35-.11-12.25 9.76-.09 14.64-.12 24.4-.15v12.25h27.32v-12.25c9.76 0 14.65.06 24.41.15 0 4.9-.07 7.35-.12 12.25 10.93.1 16.4.17 27.32.34l.2-12.24c9.76.15 14.64.24 24.4.46-.11 4.9-.16 7.34-.27 12.24 10.93.24 16.39.38 27.32.69l.35-12.24c9.75.27 14.63.43 24.39.76l-.42 12.24c10.92.38 16.39.58 27.31 1l.5-12.24c10.07.42 15.1.64 25.17 1.11l-5.61 118.92c-125.74-.61-251.56.5-377.3 0Q1007 874 1004.2 814.57c10.06-.47 15.1-.69 25.16-1.1z"
                    fill="#605f60" />
                <g class="prefix__prefix__briques-12" data-name="briques">
                    <path class="prefix__prefix__brique-32" data-name="brique" fill="none" stroke="#8c8c8c"
                        stroke-linecap="round" stroke-miterlimit="10" stroke-width="1.988"
                        d="M1365.54 840.74l-13.27-.19" />
                    <path class="prefix__prefix__brique-33" data-name="brique" fill="none" stroke="#8c8c8c"
                        stroke-linecap="round" stroke-miterlimit="10" stroke-width="1.988" d="M1272.6 896.08h-12.25" />
                    <path class="prefix__prefix__brique-34" data-name="brique" fill="none" stroke="#8c8c8c"
                        stroke-linecap="round" stroke-miterlimit="10" stroke-width="1.988"
                        d="M1138.03 840.4l-14.65.34" />
                    <path class="prefix__prefix__brique-35" data-name="brique" fill="none" stroke="#8c8c8c"
                        stroke-linecap="round" stroke-miterlimit="10" stroke-width="1.988"
                        d="M1092.52 873.54l-12.26.42" />
                    <path class="prefix__prefix__brique-36" data-name="brique" fill="none" stroke="#8c8c8c"
                        stroke-linecap="round" stroke-miterlimit="10" stroke-width="1.988"
                        d="M1051.66 855.03l-13.27.34" />
                </g>
                <path class="prefix__prefix__shadow-28" data-name="shadow"
                    d="M1029.36 813.47l.5 12.23 16.19-.63c-9.53 86.47-5.79 89.41 19.23 92.92 18.88 2.65 239.64-1.62 263.83-1.54 30.78.11 32 10.17 32.52-91l5.41.22.5-12.24c10.07.42 15.1.64 25.17 1.11l-5.61 118.92c-125.74-.61-251.56.5-377.3 0l-5.6-118.89c10.06-.47 15.1-.69 25.16-1.1z"
                    opacity=".2" />
            </g>
        </g>
        <g class="prefix__prefix__tower-roof-left" data-svg-origin="462.55999755859375 573.9199829101562"
            style="translate:none;rotate:none;scale:none;transform-origin:0 0">
            <path class="prefix__prefix__back-3" data-name="back"
                d="M545 673.86s-.22 2.24-.37 3.73c-4-.4-6.07-.58-10.12-.86.1-1.5.15-2.25.26-3.74-4-.28-5.93-.39-9.89-.56-.07 1.5-.1 2.25-.16 3.75-4.06-.18-6.09-.24-10.15-.29v-3.75c-4-.06-5.94-.06-9.91 0 0 1.5 0 2.25.06 3.75-4.06.05-6.09.11-10.15.29-.07-1.5-.1-2.25-.16-3.75-4 .17-5.94.28-9.89.56.1 1.49.15 2.24.26 3.74-4.05.28-6.08.46-10.12.86-.15-1.49-.23-2.24-.38-3.73a16.42 16.42 0 00-2.38.38s-.28 12.33 0 12.13c-1.79 1.37 10 19.63 10.52 21.09 2 62.18 2 146.78 0 209a219.93 219.93 0 0023.6 2.05 154.26 154.26 0 0030.84-2c-2.63-67-3.49-148.06 0-209L547.4 689v-14.74z"
                fill="#00246b" />
            <path class="prefix__prefix__top-back"
                d="M556.22 684.08c-20.76-29.54-46.79-106.51-46.59-110l-.24.77c-13.3 37.46-18.61 79.68-46.83 109.27a53 53 0 009.37 2.17c-.26.2 0-12.13 0-12.13a16.42 16.42 0 012.38-.38c.15 1.49.23 2.24.38 3.73 4-.4 6.07-.57 10.12-.86-.11-1.49-.16-2.24-.26-3.74 3.95-.28 5.93-.39 9.89-.56.06 1.5.09 2.25.16 3.75 4.06-.17 6.09-.23 10.15-.29 0-1.5 0-2.25-.06-3.75h9.91v3.75c4.06.06 6.09.12 10.15.29.06-1.5.09-2.25.16-3.75 4 .17 5.93.28 9.89.56-.11 1.5-.16 2.25-.26 3.74 4 .29 6.07.46 10.12.86.15-1.49.37-3.73.37-3.73l2.4.4v11.45c4.82-.54 8-1.09 8.82-1.51z"
                fill="#00246b" />
            <g class="prefix__prefix__shad-grpe-7" data-name="shad-grpe" opacity=".85">
                <path class="prefix__prefix__tower-13" data-name="tower"
                    d="M545 673.86s-.22 2.24-.37 3.73c-4-.4-6.07-.58-10.12-.86.1-1.5.15-2.25.26-3.74-4-.28-5.93-.39-9.89-.56-.07 1.5-.1 2.25-.16 3.75-4.06-.18-6.09-.24-10.15-.29v-3.75c-4-.06-5.94-.06-9.91 0 0 1.5 0 2.25.06 3.75-4.06.05-6.09.11-10.15.29-.07-1.5-.1-2.25-.16-3.75-4 .17-5.94.28-9.89.56.1 1.49.15 2.24.26 3.74-4.05.28-6.08.46-10.12.86-.15-1.49-.23-2.24-.38-3.73a16.42 16.42 0 00-2.38.38v14.77l10.52 18.45c2 62.18 2 146.78 0 209 19.66 2.76 37.88 2.89 54.44 0-2.69-66.29-3.41-152 0-209L547.4 689v-14.74z"
                    fill="#605f60" />
                <path
                    d="M544.63 677.59c-4-.4-6.07-.58-10.12-.86.1-1.5.15-2.25.26-3.74-4-.28-5.93-.39-9.89-.56-.07 1.5-.1 2.25-.16 3.75-4.06-.18-6.09-.24-10.15-.29v-3.75c-4-.06-5.94-.06-9.91 0 0 1.5 0 2.25.06 3.75-4.06.05-6.09.11-10.15.29-.07-1.5-.1-2.25-.16-3.75-4 .17-5.94.28-9.89.56.1 1.49.15 2.24.26 3.74-4.05.28-6.08.46-10.12.86-.15-1.49-.23-2.24-.38-3.73a16.42 16.42 0 00-2.38.38v8.47c21.66-3.81 45.32-6.53 75.46.54v-9l-2.4-.4s-.18 2.25-.33 3.74z"
                    opacity=".2" />
                <g class="prefix__prefix__briques-13" data-name="briques">
                    <path class="prefix__prefix__brique-37" data-name="brique"
                        d="M527.37 727.51a49.23 49.23 0 00-8.71-.72" fill="none" stroke="#8c8c8c" stroke-linecap="round"
                        stroke-miterlimit="10" stroke-width="1.988" />
                    <path class="prefix__prefix__brique-38" data-name="brique"
                        d="M524.58 751.51a48.45 48.45 0 00-8.38-.51" fill="none" stroke="#8c8c8c" stroke-linecap="round"
                        stroke-miterlimit="10" stroke-width="1.988" />
                    <path class="prefix__prefix__brique-39" data-name="brique" d="M502 864.14a53.5 53.5 0 00-9.39.63"
                        fill="none" stroke="#8c8c8c" stroke-linecap="round" stroke-miterlimit="10"
                        stroke-width="1.988" />
                </g>
                <path class="prefix__prefix__shadow-29" data-name="shadow"
                    d="M471.93 689c18.89-5.92 59-5.16 75.47 0l-10.51 18.45q-.35 5.76-.63 11.62c-10.93-8.77-35.76-9.61-36.66 6.52-1.14 20.56-4 118.74 6.45 192.87a214.29 214.29 0 01-23.6-2.05c2-62.18 2-146.78 0-209z"
                    opacity=".2" />
                <path class="prefix__prefix__col-9" data-name="col"
                    d="M482.45 707.46L471.93 689c18.89-5.92 59-5.16 75.47 0l-10.51 18.45c-14.98-4.82-40.23-4.69-54.44.01z"
                    opacity=".2" />
                <g class="prefix__prefix__roof-tower-side">
                    <path class="prefix__prefix__roof-10" data-name="roof"
                        d="M509.67 573.92c-1.27.55 25.36 80 46.55 110.16-28.85-11.71-76.33-8.18-93.66 0 22.02-21.64 28.79-51.82 47.11-110.16z"
                        fill="#090970" />
                    <path class="prefix__prefix__shadow-30" data-name="shadow"
                        d="M509.39 574.81c-31.54 116.14-16.31 83 40 98.17 2.33 4.15 4.63 7.9 6.88 11.1-28.85-11.71-76.33-8.18-93.66 0 21.86-21.53 28.67-51.52 46.78-109.27z"
                        opacity=".2" />
                </g>
            </g>
        </g>
        <g class="prefix__prefix__tower-roof-right" data-svg-origin="1362.3697509765625 573.9199829101562"
            style="translate:none;rotate:none;scale:none;transform-origin:0 0">
            <path class="prefix__prefix__back-4" data-name="back"
                d="M1373.67 673.86s.22 2.24.37 3.73c4-.4 6.07-.58 10.12-.86-.1-1.5-.16-2.25-.26-3.74 3.95-.28 5.93-.39 9.89-.56.07 1.5.1 2.25.16 3.75 4.06-.18 6.09-.24 10.15-.29v-3.75c4-.06 5.94-.06 9.9 0v3.75c4.06.05 6.09.11 10.15.29.06-1.5.1-2.25.16-3.75 4 .17 5.94.28 9.89.56-.1 1.49-.16 2.24-.26 3.74 4.05.28 6.08.46 10.12.86.15-1.49.23-2.24.37-3.73a16.43 16.43 0 012.39.38s.27 12.33 0 12.13c1.79 1.37-10 19.63-10.52 21.09-2 62.18-2 146.78 0 209a219.93 219.93 0 01-23.6 2.05 154.26 154.26 0 01-30.84-2c2.63-67 3.49-148.06 0-209L1371.27 689v-14.74z"
                fill="#00246b" />
            <path class="prefix__prefix__top-back"
                d="M1362.45 684.08c20.76-29.54 46.79-106.51 46.59-110l.24.77c13.3 37.46 18.61 79.68 46.83 109.27a53 53 0 01-9.37 2.17c.25.2 0-12.13 0-12.13a16.43 16.43 0 00-2.39-.38c-.14 1.49-.22 2.24-.37 3.73-4-.4-6.07-.57-10.12-.86.1-1.49.16-2.24.26-3.74-3.95-.28-5.93-.39-9.89-.56-.06 1.5-.1 2.25-.16 3.75-4.06-.17-6.09-.23-10.15-.29v-3.75h-9.9v3.75c-4.06.06-6.09.12-10.15.29-.06-1.5-.09-2.25-.16-3.75-4 .17-5.94.28-9.89.56.1 1.5.16 2.25.26 3.74-4.05.29-6.08.46-10.12.86-.15-1.49-.37-3.73-.37-3.73l-2.4.4v11.45c-4.82-.54-8-1.09-8.82-1.51z"
                fill="#00246b" />
            <g class="prefix__prefix__shade-grpe">
                <path class="prefix__prefix__tower-14" data-name="tower"
                    d="M1373.67 673.86s.22 2.24.37 3.73c4-.4 6.07-.58 10.12-.86-.1-1.5-.16-2.25-.26-3.74 3.95-.28 5.93-.39 9.89-.56.07 1.5.1 2.25.16 3.75 4.06-.18 6.09-.24 10.15-.29v-3.75c4-.06 5.94-.06 9.9 0v3.75c4.06.05 6.09.11 10.15.29.06-1.5.1-2.25.16-3.75 4 .17 5.94.28 9.89.56-.1 1.49-.16 2.24-.26 3.74 4.05.28 6.08.46 10.12.86.15-1.49.23-2.24.37-3.73a16.43 16.43 0 012.39.38v14.77l-10.52 18.45c-2 62.18-2 146.78 0 209-19.66 2.76-37.88 2.89-54.44 0 2.69-66.29 3.4-152 0-209L1371.27 689v-14.74z"
                    fill="#605f60" />
                <path
                    d="M1374 677.59c4-.4 6.07-.58 10.12-.86-.1-1.5-.16-2.25-.26-3.74 3.95-.28 5.93-.39 9.89-.56.07 1.5.1 2.25.16 3.75 4.06-.18 6.09-.24 10.15-.29v-3.75c4-.06 5.94-.06 9.9 0v3.75c4.06.05 6.09.11 10.15.29.06-1.5.1-2.25.16-3.75 4 .17 5.94.28 9.89.56-.1 1.49-.16 2.24-.26 3.74 4.05.28 6.08.46 10.12.86.15-1.49.23-2.24.37-3.73a16.43 16.43 0 012.39.38v8.47c-21.66-3.81-45.32-6.53-75.46.54v-9l2.4-.4s.17 2.25.28 3.74z"
                    data-name="top-shadow" opacity=".2" />
                <g class="prefix__prefix__briques-14" data-name="briques">
                    <path class="prefix__prefix__brique-40" data-name="brique"
                        d="M1391.3 727.51a49.23 49.23 0 018.71-.72" fill="none" stroke="#8c8c8c" stroke-linecap="round"
                        stroke-miterlimit="10" stroke-width="1.988" />
                    <path class="prefix__prefix__brique-41" data-name="brique"
                        d="M1394.09 751.51a48.45 48.45 0 018.38-.51" fill="none" stroke="#8c8c8c" stroke-linecap="round"
                        stroke-miterlimit="10" stroke-width="1.988" />
                    <path class="prefix__prefix__brique-42" data-name="brique"
                        d="M1416.68 864.14a53.56 53.56 0 019.39.63" fill="none" stroke="#8c8c8c" stroke-linecap="round"
                        stroke-miterlimit="10" stroke-width="1.988" />
                </g>
                <path class="prefix__prefix__shadow-31" data-name="shadow"
                    d="M1446.74 689c-18.89-5.92-59-5.16-75.47 0l10.51 18.45q.35 5.76.63 11.62c10.93-8.77 35.76-9.61 36.66 6.52 1.14 20.56 4 118.74-6.45 192.87a214.5 214.5 0 0023.6-2.05c-2-62.18-2-146.78 0-209z"
                    opacity=".2" />
                <path class="prefix__prefix__col-10" data-name="col"
                    d="M1436.22 707.46l10.52-18.46c-18.89-5.92-59-5.16-75.47 0l10.51 18.45c14.97-4.82 40.22-4.69 54.44.01z"
                    opacity=".2" />
                <g class="prefix__prefix__roof-tower-side">
                    <path class="prefix__prefix__roof-12" data-name="roof"
                        d="M1409 573.92c1.27.55-25.36 80-46.55 110.16 28.85-11.71 76.33-8.18 93.66 0-22.02-21.64-28.79-51.82-47.11-110.16z"
                        fill="#090970" />
                    <path class="prefix__prefix__shadow-32" data-name="shadow"
                        d="M1409.28 574.81c31.54 116.14 16.31 83-40 98.17-2.33 4.15-4.64 7.9-6.88 11.1 28.85-11.71 76.33-8.18 93.66 0-21.86-21.53-28.67-51.52-46.78-109.27z"
                        opacity=".2" />
                </g>
            </g>
        </g>
        <g class="prefix__prefix__tower-right" data-svg-origin="1130.81005859375 607"
            style="translate:none;rotate:none;scale:none;transform-origin:0 0">
            <path class="prefix__prefix__tower-15" data-name="tower"
                d="M1269.53 612.63v11.91q-13-2.38-25.87-3.8v-11.92q-12-1.32-24-1.79V619q-13-.51-25.87 0v-12q-12 .45-24 1.75v11.91q-13 1.41-25.87 3.82v-11.91q-6.57 1.23-13.11 2.71v37.44l21.19 37.11c6.85 114.63 5.41 152.61 0 286 33.32 5.81 70 5.54 109.53 0-4.08-125.1-4.08-160.88 0-286l21.15-37.11v-37.44q-6.61-1.46-13.15-2.65z"
                fill="#00246b" />
            <g class="prefix__prefix__shad-grpe-8" data-name="shad-grpe" opacity=".85">
                <path class="prefix__prefix__tower-16" data-name="tower"
                    d="M1269.53 612.63v11.91q-13-2.38-25.87-3.8v-11.92q-12-1.32-24-1.79V619q-13-.51-25.87 0v-12q-12 .45-24 1.75v11.91q-13 1.41-25.87 3.82v-11.91q-6.57 1.23-13.11 2.71v37.44l21.19 37.11c6.85 114.63 5.41 152.61 0 286 33.32 5.81 70 5.54 109.53 0-4.08-125.1-4.08-160.88 0-286l21.15-37.11v-37.44q-6.61-1.46-13.15-2.65z"
                    fill="#605f60" />
                <g class="prefix__prefix__briques-15" data-name="briques">
                    <path class="prefix__prefix__brique-43" data-name="brique"
                        d="M1171.11 730.17a102.65 102.65 0 0117.53-1.45" fill="none" stroke="#8c8c8c"
                        stroke-linecap="round" stroke-miterlimit="10" stroke-width="4" />
                    <path class="prefix__prefix__brique-44" data-name="brique" d="M1176.73 778.46a98 98 0 0116.85-1"
                        fill="none" stroke="#8c8c8c" stroke-linecap="round" stroke-miterlimit="10" stroke-width="4" />
                    <path class="prefix__prefix__brique-45" data-name="brique"
                        d="M1222.17 870.63a107.45 107.45 0 0118.9 1.28" fill="none" stroke="#8c8c8c"
                        stroke-linecap="round" stroke-miterlimit="10" stroke-width="4" />
                </g>
                <g class="prefix__prefix__tower-windows">
                    <path class="prefix__prefix__window-20"
                        d="M1173.55 758.5h11.6v-24.44c0-3.21-3.87-11.43-5.8-11.43s-5.8 8.22-5.8 11.43z"
                        fill="#e2d600" />
                    <path class="prefix__prefix__window-edge-6" data-name="window-edge"
                        d="M1179.35 722.63a1.26 1.26 0 01.69.29c-2 1.44-5.11 8.28-5.11 11.14v24.44h-1.38v-24.44c0-3.21 3.87-11.43 5.8-11.43z"
                        fill="#494949" />
                    <path class="prefix__prefix__window-21" data-name="window"
                        d="M1246.87 758.19h-11.61v-24.44c0-3.2 3.87-11.43 5.81-11.43s5.8 8.23 5.8 11.43z"
                        fill="#e2d600" />
                    <path class="prefix__prefix__window-edge-7" data-name="window-edge"
                        d="M1241.07 722.32a1.3 1.3 0 00-.69.29c2 1.45 5.11 8.28 5.11 11.14v24.44h1.38v-24.44c0-3.2-3.87-11.43-5.8-11.43z"
                        fill="#494949" />
                </g>
                <path class="prefix__prefix__shadow-33" data-name="shadow"
                    d="M1282.64 652.72c-38-11.91-118.68-10.38-151.83 0l21.19 37.11q.69 11.59 1.27 23.38c22-17.63 72-19.33 73.75 13.13 2.3 41.36 8 104.46-13 253.59a429.07 429.07 0 0047.49-4.11c-4.08-125.1-4.08-160.88 0-286z"
                    opacity=".2" />
                <path class="prefix__prefix__col-11" data-name="col"
                    d="M1261.49 689.83l21.15-37.11c-38-11.91-118.68-10.38-151.83 0l21.19 37.11c30.09-9.7 80.9-9.45 109.49 0z"
                    opacity=".2" />
            </g>
        </g>
        <g class="prefix__prefix__tower-left" data-svg-origin="645.2799682617188 607"
            style="translate:none;rotate:none;scale:none;transform-origin:0 0">
            <path class="prefix__prefix__tower-17" data-name="tower"
                d="M658.38 612.63v11.91q13-2.38 25.88-3.8v-11.92q12-1.32 24-1.79V619q13-.51 25.87 0v-12q12 .45 24 1.75v11.91q13 1.41 25.87 3.82v-11.91q6.57 1.23 13.11 2.71v37.44L776 689.83c-6.85 114.63-5.41 152.61 0 286-33.32 5.81-70 5.54-109.53 0 4.08-125.1 4.08-160.88 0-286l-21.15-37.11v-37.44q6.53-1.46 13.06-2.65z"
                fill="#00246b" />
            <g class="prefix__prefix__shad-grpe-9" data-name="shad-grpe" opacity=".85">
                <path class="prefix__prefix__tower-18" data-name="tower"
                    d="M658.38 612.63v11.91q13-2.38 25.88-3.8v-11.92q12-1.32 24-1.79V619q13-.51 25.87 0v-12q12 .45 24 1.75v11.91q13 1.41 25.87 3.82v-11.91q6.57 1.23 13.11 2.71v37.44L776 689.83c-6.85 114.63-5.41 152.61 0 286-33.32 5.81-70 5.54-109.53 0 4.08-125.1 4.08-160.88 0-286l-21.15-37.11v-37.44q6.53-1.46 13.06-2.65z"
                    fill="#605f60" />
                <g class="prefix__prefix__briques-16" data-name="briques">
                    <path class="prefix__prefix__brique-46" data-name="brique"
                        d="M768.38 708a102.65 102.65 0 00-17.53-1.45" fill="none" stroke="#8c8c8c"
                        stroke-linecap="round" stroke-miterlimit="10" stroke-width="4" />
                    <path class="prefix__prefix__brique-47" data-name="brique" d="M751.19 778.46a98 98 0 00-16.85-1"
                        fill="none" stroke="#8c8c8c" stroke-linecap="round" stroke-miterlimit="10" stroke-width="4" />
                    <path class="prefix__prefix__brique-48" data-name="brique"
                        d="M705.75 870.63a107.45 107.45 0 00-18.9 1.28" fill="none" stroke="#8c8c8c"
                        stroke-linecap="round" stroke-miterlimit="10" stroke-width="4" />
                </g>
                <path class="prefix__prefix__col-12" data-name="col"
                    d="M666.43 689.83l-21.15-37.11c38-11.91 118.68-10.38 151.83 0L776 689.83c-30.17-9.7-81-9.45-109.57 0z"
                    opacity=".2" />
                <g class="prefix__prefix__tower-windows">
                    <path class="prefix__prefix__window-22" data-name="window"
                        d="M756.24 758.19h-11.6v-24.44c0-3.2 3.87-11.43 5.8-11.43s5.8 8.23 5.8 11.43z" fill="#e2d600" />
                    <path class="prefix__prefix__window-edge-8" data-name="window-edge"
                        d="M750.44 722.32a1.34 1.34 0 00-.69.29c2 1.45 5.11 8.28 5.11 11.14v24.44h1.38v-24.44c0-3.2-3.86-11.43-5.8-11.43z"
                        fill="#494949" />
                    <path class="prefix__prefix__window-23" data-name="window"
                        d="M682.92 758.5h11.61v-24.44c0-3.21-3.87-11.43-5.81-11.43s-5.8 8.22-5.8 11.43z"
                        fill="#e2d600" />
                    <path class="prefix__prefix__window-edge-9" data-name="window-edge"
                        d="M688.72 722.63a1.23 1.23 0 01.69.29c-2 1.44-5.11 8.28-5.11 11.14v24.44h-1.38v-24.44c0-3.21 3.87-11.43 5.8-11.43z"
                        fill="#494949" />
                </g>
                <path class="prefix__prefix__shadow-34" data-name="shadow"
                    d="M645.28 652.72c38-11.91 118.68-10.38 151.83 0L776 689.83q-.69 11.59-1.27 23.38c-22-17.63-72-19.33-73.75 13.13-2.3 41.36-8 104.46 13 253.59a429.07 429.07 0 01-47.49-4.11c4.08-125.1 4.08-160.88 0-286z"
                    opacity=".2" />
            </g>
        </g>
        <g class="prefix__prefix__ground">
            <path class="prefix__prefix__ground-2" data-name="ground"
                d="M153.88 1156.39C172.66 1035 406.36 919 511.06 922.13c87.83 2.64 845.31 3 890.54-1.23 134.6-12.6 334.21 106.95 395.49 247.74z"
                fill="#0b397c" />
            <path class="prefix__prefix__wall-ground-left" opacity=".2"
                d="M520.39 926.03l12.16-5.95 36.81-.26 34.48 2.41 19.09-2.15 19.91-.88 13.48.88 39.83-.88 41.87-2.54 33.02 4.69 16-2.71 31.66 1.44 17.7-1.61 25.87 1.61 36.94-3.42 33.02 4.69-53.35 10.06-20.6-3.41-14.05 3.11-15.04-3.67-40.21 1.78-18.02-.71-15.92 1.72-20.59 1.7-14.81-4.18-34.21 1.52h-32.18l-16-.31-25.7 2.11-61.92-2-20.12.2-9.12-3.24z" />
            <path class="prefix__prefix__wall-ground-right" opacity=".2"
                d="M1004.58 926.03l12.16-5.95 36.81-.26 34.48 2.41 19.09-2.15 19.91-.88 13.48.88 39.83-.88 41.87-2.54 33.02 4.69 16-2.71 31.66 1.44 17.7-1.61 25.87 1.61 36.94-3.42 33.02 4.69-53.35 10.06-18.16-5.96-14.12 3.33-17.41 1.78-43.02-1.71-14.3 2.43-18.04-4.13-19.18-.68-14.16 2.8-34.91-4.46-32.33 4.46-16.44-1.01-25.26 2.81-60.02-4.8-22.02 3-9.12-3.24z" />
            <g class="prefix__prefix__left-roof-tower-base" data-svg-origin="479.4700012207031 899.6399536132812"
                style="translate:none;rotate:none;scale:none;transform-origin:0 0">
                <path class="prefix__prefix__left-roof-tower-back"
                    d="M482.09 899.73c-.23 11-.5 21.7-.83 31.79 20.52 2.88 39.53 3 56.82 0-.42-10.23-.79-20.92-1.1-31.88-13.34 2.08-42.83 2.51-54.89.09z"
                    fill="#00246b" />
                <path class="prefix__prefix__left-base-roof-tower-back"
                    d="M482.09 899.73c-.23 11-.5 21.7-.83 31.79 20.52 2.88 39.53 3 56.82 0-.42-10.23-.79-20.92-1.1-31.88-13.34 2.08-42.83 2.51-54.89.09z"
                    fill="#5d5963" />
                <path class="prefix__prefix__base-shadow"
                    d="M504.8 901.37c-9-.08-17.49-.59-22.71-1.64-.23 11-.5 21.7-.83 31.79a214.09 214.09 0 0030.6 2.2c-5.38-3.82-7.79-11.72-7.06-32.35z"
                    opacity=".2" />
                <path class="prefix__prefix__base-top-shadow"
                    d="M537 900.28v-.64c-13.34 2.08-42.83 2.51-54.89.09v.68c10.43 3.1 43.59 1.9 54.89-.13z"
                    opacity=".3" />
                <path class="prefix__prefix__dirt" opacity=".2"
                    d="M479.98 931.66l3.49-1.55 14.13 2.4 14.89-.93 16.68.93 7.72-3.39 3.17 2.88-3.17 2.22-4.91-.49-12.94 2.78h-15.49l-12.51-1.87-11.57-.98.51-2z" />
            </g>
            <g class="prefix__prefix__right-roof-tower-base" data-svg-origin="1379.27001953125 899.6199951171875"
                style="translate:none;rotate:none;scale:none;transform-origin:0 0">
                <path class="prefix__prefix__left-roof-tower-back-2" data-name="left-roof-tower-back"
                    d="M1437.15 899.71c.22 11 .5 21.7.83 31.79-20.52 2.88-39.53 3-56.82 0 .42-10.23.79-20.92 1.1-31.88 13.34 2.08 42.83 2.51 54.89.09z"
                    fill="#00246b" />
                <path class="prefix__prefix__left-base-roof-tower-back-2" data-name="left-base-roof-tower-back"
                    d="M1437.15 899.71c.22 11 .5 21.7.83 31.79-20.52 2.88-39.53 3-56.82 0 .42-10.23.79-20.92 1.1-31.88 13.34 2.08 42.83 2.51 54.89.09z"
                    fill="#5d5963" />
                <path class="prefix__prefix__base-shadow-2" data-name="base-shadow"
                    d="M1414.44 901.35c9-.08 17.49-.6 22.71-1.64.22 11 .5 21.7.83 31.79a214.09 214.09 0 01-30.6 2.2c5.38-3.82 7.79-11.7 7.06-32.35z"
                    opacity=".2" />
                <path class="prefix__prefix__base-top-shadow-2" data-name="base-top-shadow"
                    d="M1382.24 900.26v-.64c13.34 2.08 42.83 2.51 54.89.09v.68c-10.43 3.1-43.59 1.9-54.89-.13z"
                    opacity=".3" />
                <path class="prefix__prefix__dirt-2" data-name="dirt" opacity=".2"
                    d="M1379.79 931.66l3.48-1.55 14.13 2.4 14.9-.93 16.68.93 7.72-3.39 3.17 2.88-3.17 2.22-4.91-.49-12.94 2.78h-15.49l-12.51-1.87-11.58-.98.52-2z" />
            </g>
            <g class="prefix__prefix__right-tower-base" data-svg-origin="1147.3900146484375 888.3699951171875"
                style="translate:none;rotate:none;scale:none;transform-origin:0 0">
                <path class="prefix__prefix__left-roof-tower-back-3" data-name="left-roof-tower-back"
                    d="M1261.12 888.49c.45 15.35 1 30.15 1.64 44.17-40.32 4-77.69 4.18-111.66 0 .82-14.22 1.54-29.06 2.17-44.29 26.21 2.89 84.15 3.49 107.85.12z"
                    fill="#00246b" />
                <path class="prefix__prefix__left-base-roof-tower-back-3" data-name="left-base-roof-tower-back"
                    d="M1261.12 888.49c.45 15.35 1 30.15 1.64 44.17-40.32 4-77.69 4.18-111.66 0 .82-14.22 1.54-29.06 2.17-44.29 26.21 2.89 84.15 3.49 107.85.12z"
                    fill="#5d5963" />
                <path class="prefix__prefix__base-shadow-3" data-name="base-shadow"
                    d="M1216.49 890.77c17.72-.11 34.38-.82 44.63-2.28.45 15.35 1 30.15 1.64 44.17a597.22 597.22 0 01-60.14 3.05c10.58-5.3 15.32-16.24 13.87-44.94z"
                    opacity=".2" />
                <path class="prefix__prefix__base-top-shadow-3" data-name="base-top-shadow"
                    d="M1153.23 889.26v-.89c26.21 2.89 84.15 3.49 107.85.12v1c-20.49 4.26-85.64 2.59-107.85-.23z"
                    opacity=".3" />
                <path class="prefix__prefix__dirt-3" data-name="dirt" opacity=".2"
                    d="M1148.4 932.88l6.85-2.15 27.77 3.33 29.26-1.3 32.79 1.3 15.16-4.71 6.24 4.01-6.24 3.07-9.65-.68-25.42 3.87h-30.44l-24.58-2.6-22.75-1.37 1.01-2.77z" />
            </g>
            <g class="prefix__prefix__left-tower-base" data-svg-origin="661.5399780273438 888.489990234375"
                style="translate:none;rotate:none;scale:none;transform-origin:0 0">
                <path class="prefix__prefix__left-roof-tower-back-4" data-name="left-roof-tower-back"
                    d="M666.89 888.61c-.45 15.35-1 30.15-1.64 44.17 40.32 4 77.69 4.18 111.66 0-.82-14.22-1.54-29.06-2.17-44.29-26.21 2.89-84.15 3.51-107.85.12z"
                    fill="#00246b" />
                <path class="prefix__prefix__left-base-roof-tower-back-4" data-name="left-base-roof-tower-back"
                    d="M666.89 888.61c-.45 15.35-1 30.15-1.64 44.17 40.32 4 77.69 4.18 111.66 0-.82-14.22-1.54-29.06-2.17-44.29-26.21 2.89-84.15 3.51-107.85.12z"
                    fill="#5d5963" />
                <path class="prefix__prefix__base-shadow-4" data-name="base-shadow"
                    d="M711.52 890.89c-17.72-.11-34.38-.82-44.63-2.28-.45 15.35-1 30.15-1.64 44.17a597.22 597.22 0 0060.14 3.05c-10.58-5.3-15.32-16.24-13.87-44.94z"
                    opacity=".2" />
                <path class="prefix__prefix__base-top-shadow-4" data-name="base-top-shadow"
                    d="M774.78 889.38v-.89c-26.21 2.89-84.15 3.49-107.85.12v.95c20.49 4.31 85.65 2.64 107.85-.18z"
                    opacity=".3" />
                <path class="prefix__prefix__dirt-4" data-name="dirt" opacity=".2"
                    d="M779.62 933l-6.86-2.15-27.76 3.33-29.27-1.3-32.78 1.3-15.17-4.71-6.24 4.01 6.24 3.07 9.65-.67 25.42 3.86h30.44l24.58-2.6 22.75-1.37-1-2.77z" />
            </g>
            <g class="prefix__prefix__trees">
                <g class="prefix__prefix__tree-right" data-svg-origin="1618.499267578125 852.1011962890625"
                    style="translate:none;rotate:none;scale:none;transform-origin:0 0">
                    <path class="prefix__prefix__tree-2" data-name="tree"
                        d="M1680.48 676.44c24.21 5.22-28.21 293-41.15 330.26s-91.29 21.69-89-19.17 105.93-316.3 130.15-311.09z"
                        fill="#104687" />
                    <path class="prefix__prefix__shadow-35" data-name="shadow"
                        d="M1684.23 680.83c13.87 36.84-32.79 291-44.9 325.87-13.7 39.11-97.75 19.85-88.39-24.19 80.42 72.61 98.45-100.51 133.29-301.68z"
                        opacity=".2" />
                    <path class="prefix__prefix__light-3" data-name="light"
                        d="M1557.24 992c2.22-39.39 98.56-296.71 127.2-310.57-1-2.89-2.29-4.61-4-5-24.22-5.21-127.83 270.22-130.13 311.09-.81 14.33 8.3 25.54 21 32.47-8.9-6.89-14.72-16.43-14.07-27.99z"
                        fill="#f4e92c" opacity=".1" />
                </g>
                <g class="prefix__prefix__tree-right-2" data-name="tree-right"
                    data-svg-origin="1521.2808227539062 907.5215148925781"
                    style="translate:none;rotate:none;scale:none;transform-origin:0 0">
                    <path class="prefix__prefix__tree-3" data-name="tree"
                        d="M1535.27 833.67c10.15.67 6 120.72 3 136.65s-35.8 14.25-37.3-2.49 24.15-134.83 34.3-134.16z"
                        fill="#104687" />
                    <path class="prefix__prefix__shadow-36" data-name="shadow"
                        d="M1537.05 835.22c7.84 14.15 4 120.19 1.19 135.1-3.24 16.71-38.54 13.89-37.36-4.56 37.01 24.71 34.01-46.76 36.17-130.54z"
                        opacity=".2" />
                    <path class="prefix__prefix__light-4" data-name="light"
                        d="M1503.56 967.83c-1.43-16 21.88-124.2 32.84-133.52a1.7 1.7 0 00-1.13-.64c-10.15-.68-35.83 117.42-34.33 134.16.83 9.33 11.37 14 21.06 13.51-8.88-.41-17.68-5.02-18.44-13.51z"
                        fill="#f4e92c" opacity=".1" />
                </g>
                <g class="prefix__prefix__tree-left" data-svg-origin="384.66644287109375 850.8644409179688"
                    style="translate:none;rotate:none;scale:none;transform-origin:0 0">
                    <path class="prefix__prefix__tree-4" data-name="tree"
                        d="M362.1 731.75c-16.37 1.09-9.68 194.69-4.79 220.39s57.74 23 60.16-4-39-217.48-55.37-216.39z"
                        fill="#104687" />
                    <path class="prefix__prefix__shadow-37" data-name="shadow"
                        d="M359.22 734.26c-12.63 22.81-6.49 193.84-1.91 217.88 5.22 27 62.15 22.41 60.26-7.36-59.69 39.86-54.86-75.35-58.35-210.52z"
                        opacity=".2" />
                    <path class="prefix__prefix__light-5" data-name="light"
                        d="M362.1 731.75a2.67 2.67 0 00-1.7.88c17.59 14 55.46 189.65 53.14 215.5-1.23 13.73-15.5 21.17-29.87 21.8 15.59.68 32.46-6.82 33.8-21.8 2.42-27-39-217.47-55.37-216.38z"
                        fill="#f4e92c" opacity=".1" />
                </g>
                <g class="prefix__prefix__tree-left-2" data-name="tree-left"
                    data-svg-origin="313.9056091308594 843.2857666015625"
                    style="translate:none;rotate:none;scale:none;transform-origin:0 0">
                    <path class="prefix__prefix__tree-5" data-name="tree"
                        d="M270.39 691.79c-20.86 3.16 8.51 250.59 17.54 283s76.48 23.27 76.68-11.6-73.35-274.55-94.22-271.4z"
                        fill="#104687" />
                    <path class="prefix__prefix__shadow-38" data-name="shadow"
                        d="M267 695.32c-13.74 30.6 12.52 249.14 21 279.46 9.59 34 82.07 22 76.44-15.9C292.15 1016.37 286 868.2 267 695.32z"
                        opacity=".2" />
                    <path class="prefix__prefix__light-6" data-name="light"
                        d="M270.39 691.79a4.31 4.31 0 00-2.85 2.42C293 719.3 357.18 930.6 357 963.18c-.11 18.84-19.86 30.17-39.42 31.48 21.67 1.53 46.92-10.17 47-31.48.23-34.87-73.32-274.54-94.19-271.39z"
                        fill="#f4e92c" opacity=".1" />
                </g>
            </g>
            <path class="prefix__prefix__road" fill="#5d7d84"
                d="M932.57 914.34l-200.02 246.5h442.98L992.35 913.09l-59.78 1.25z" />
            <g class="prefix__prefix__border">
                <path fill="#3f3f3f" d="M897.47 950.92v-7.46l-108.72 91.08-67.56 89.04.69 30.42 175.59-203.08z" />
                <path fill="#666" d="M721.19 1123.58l-40.7 2.04 208.09-182.16h8.89l-176.28 180.12z" />
                <path fill="#3f3f3f" d="M1022.63 950.08v-7.45l99.02 91.91 67.55 89.04-.69 30.42-165.88-203.92z" />
                <path fill="#666" d="M1189.2 1123.58l40.71 2.04-198.38-182.99h-8.9l166.57 180.95z" />
            </g>
        </g>
        <g class="prefix__prefix__castle">
            <path class="prefix__prefix__castle-2" data-name="castle"
                d="M1030.78 787.41h3a36.64 36.64 0 008.18-16.44q-81.9-2.37-163.76 0a45.19 45.19 0 008.18 16.44h2.87a763.79 763.79 0 018.37 126.47c-4.64 1.88-10.72 3-18.68 2.78l4.17 20.86h20.31v.08h113.52v-.08h20.3l4.18-20.86c-8.34.21-14.61-1-19.32-3-1.77-41.17 1.34-83.28 8.68-126.25z"
                fill="#00246b" />
            <g class="prefix__prefix__shad-grpe-10" data-name="shad-grpe" opacity=".85">
                <path class="prefix__prefix__wall-8" data-name="wall"
                    d="M888.58 783.3a764.4 764.4 0 018.62 145.12h125.66c-3.32-47.11-.15-95.54 8.62-145.12z"
                    fill="#605f60" />
                <path class="prefix__prefix__shadow-39" data-name="shadow"
                    d="M1031.48 783.3h-142.9a764.4 764.4 0 018.62 145.12h10.35c-5.26-47.71-8.24-125.07-1.32-129.49 7.92-5.06 85.87-6.79 98.61-1.76s10.61 99.1 1.68 131.25h16.34c-3.32-47.11-.15-95.54 8.62-145.12z"
                    opacity=".2" />
                <g class="prefix__prefix__stairs">
                    <g class="prefix__prefix__rampes">
                        <path class="prefix__prefix__edge-top"
                            d="M1008.35 888l-4.06-1.31c-51.12 13.31-37.29 13.39-88.29 0l-4.1 1.31s5.56 29.64-33 28.66l4.17 20.86h154.13l4.18-20.86c-38.58.98-33.03-28.66-33.03-28.66z"
                            fill="#4f4f4f" />
                        <path class="prefix__prefix__edge-front"
                            d="M1016.89 918.23c-18.23-.18-122.49 1.38-138-1.57l4.17 20.86h154.13l4.18-20.86z"
                            fill="#5b5b5b" />
                        <g class="prefix__prefix__dirt-5" data-name="dirt">
                            <path class="prefix__prefix__dirt-6" data-name="dirt" fill="#00246b"
                                d="M883.06 937.52h85.27l-29.8-1.6h-32.68l-12.94.54-6.12-2.23-4.07 1.59.34 1.7z" />
                            <path class="prefix__prefix__dirt-7" data-name="dirt" fill="#00246b"
                                d="M1037.19 937.52l.54-2.7-10.65 1.89-4.45-3.18-6.58 3.99h21.14z" />
                        </g>
                        <path class="prefix__prefix__stairs-2" data-name="stairs"
                            d="M1004.29 886.69c-48.56 10.48-39.91 10.34-88.33 0 0 0 1.5 28-12.59 31.66v19.25h113.52v-19.25c-14.09-3.65-12.6-31.66-12.6-31.66z"
                            fill="#424142" />
                    </g>
                    <path class="prefix__prefix__stair" fill="#605f60"
                        d="M1001.53 924.77V913.5h-6.42v-13.12h-70.16v13.12h-6.42v11.27h-6.63v12.84h96.26v-12.84h-6.63z" />
                    <g class="prefix__prefix__lights">
                        <path class="prefix__prefix__light-7" data-name="light" fill="#7a7a7a"
                            d="M918.53 913.09h83v1.25h-83z" />
                        <path class="prefix__prefix__light-8" data-name="light" fill="#7a7a7a"
                            d="M911.9 924.32h96.26v1.25H911.9z" />
                        <path class="prefix__prefix__light-9" data-name="light" fill="#7a7a7a"
                            d="M924.95 900.38h70.17v1.25h-70.17z" />
                    </g>
                </g>
                <g class="prefix__prefix__door">
                    <path class="prefix__prefix__door-2" data-name="door"
                        d="M960 838.88c-24.49 7-18.31 37.62-18.88 61.48h37.76c-.52-23.98 5.58-54.48-18.88-61.48z"
                        fill="#494949" />
                    <path class="prefix__prefix__light-10" data-name="light"
                        d="M960 843.28c-20.49 7-15.2 36.18-15.7 57.08h31.4c-.45-20.99 4.78-50.11-15.7-57.08z"
                        fill="#e2d600" />
                </g>
                <g class="prefix__prefix__windows-6" data-name="windows">
                    <path class="prefix__prefix__window-edges"
                        d="M927 855.6a174.85 174.85 0 00-2.49-37h-8.35a174.71 174.71 0 012.27 37z" fill="#494949" />
                    <path class="prefix__prefix__window-24" data-name="window"
                        d="M926.42 852.7a164.08 164.08 0 00-1.86-31.24h-5.79a164.08 164.08 0 011.86 31.24z"
                        fill="#e2d600" />
                    <path class="prefix__prefix__window-edges-2" data-name="window-edges"
                        d="M993.14 856.26c-.5-13.58.94-24.28 2.13-37.7h8.93c-2.26 13.25-3.2 24.11-2 37.7z"
                        fill="#494949" />
                    <path class="prefix__prefix__window-25" data-name="window"
                        d="M993.64 852.7a164.08 164.08 0 011.86-31.24h5.79a164.08 164.08 0 00-1.86 31.24z"
                        fill="#e2d600" />
                </g>
                <g class="prefix__prefix__top">
                    <path class="prefix__prefix__top-2" data-name="top"
                        d="M1033.73 787.43q-73.69-.79-147.4 0a44.27 44.27 0 01-8.18-16.43q81.9-2.37 163.76 0a36 36 0 01-8.18 16.43z"
                        fill="#605f60" />
                    <path class="prefix__prefix__edge-light"
                        d="M887.38 772.47c49.65 2.64 107.43-8.94 153.26 3.08a37.54 37.54 0 001.27-4.56q-81.9-2.37-163.76 0a51.25 51.25 0 003.87 9.88c-1.77-6.19-1.48-8.46 5.36-8.4z"
                        fill="#6d6d6d" />
                    <path
                        d="M1018.35 784.3c-40.28-1.82-81.84-.89-122.7.14-5.47.14-12.19-4.63-16.32-9.79a41.85 41.85 0 007 12.78q73.71-.78 147.4 0a35.9 35.9 0 007.9-15.27c-4.86 6.54-11.89 12.65-23.28 12.14z"
                        data-name="shadow" opacity=".3" />
                </g>
            </g>
            <g class="prefix__prefix__blason" data-svg-origin="959.8935852050781 775.0999755859375"
                style="translate:none;rotate:none;scale:none;transform-origin:0 0">
                <path class="prefix__prefix__blason-2" data-name="blason"
                    d="M1009 703a3.8 3.8 0 001.24-3.37 8.94 8.94 0 00-1.16-2.69q-6.5-.36-13-.62a25.53 25.53 0 00-1.29-5.44 187.78 187.78 0 00-30-3.16l.1-9.18a19.49 19.49 0 00-9.86 0v.48l.09 8.71c-1.89.06-3.78.14-5.67.25a203.44 203.44 0 00-24.32 2.9 29.31 29.31 0 00-1.08 5.44q-6.6.25-13.19.62c-1.79 2.29-1.95 4.71.41 6.45q6.16-.33 12.32-.59c-2.24 24.22 11.47 49 32.24 53.9l.19 18.36h7.86l.19-18.37c19.7-4.43 34.82-30.52 32.53-53.88q6 .25 12 .58z"
                    fill="#00246b" />
                <g class="prefix__prefix__shad-grpe-11" data-name="shad-grpe" opacity=".85">
                    <g class="prefix__prefix__montant">
                        <path class="prefix__prefix__vertical" d="M963.93 775.1h-7.86l-1-96.52a19.49 19.49 0 019.86 0z"
                            fill="#6b5934" />
                        <path class="prefix__prefix__shadow-vert"
                            d="M955.07 678.58v.48c14.74-2.19 5.44 23.45 6.87 96h2l1-96.52a19.49 19.49 0 00-9.87.04z"
                            opacity=".2" />
                        <path class="prefix__prefix__horizontal"
                            d="M1008.68 703.43a888.21 888.21 0 00-97.36 0c-2.33-2.09-2.47-3.36-.41-6.45a893.2 893.2 0 0198.18 0c2.13 3.63 1.18 4.52-.41 6.45z"
                            fill="#6b5934" />
                        <path class="prefix__prefix__shadow-horiz"
                            d="M909.9 698.74c-.86 1.9-.4 3 1.42 4.69a888.21 888.21 0 0197.36 0c1.1-1.33 1.89-2.17 1.57-3.76-1.25 2.66-100.48 4.61-100.35-.93z"
                            opacity=".2" />
                    </g>
                    <path class="prefix__prefix__shield"
                        d="M960 757.31c-31-2.51-41.48-45.16-34.82-66.39a189.58 189.58 0 0169.64 0c7.74 20.96-5.32 64.24-34.82 66.39z"
                        fill="#090970" />
                    <path class="prefix__prefix__liseret"
                        d="M960 752.91c-27.12-2.19-36.24-39.45-30.42-58a165.64 165.64 0 0160.83 0c6.79 18.31-4.62 56.09-30.41 58z"
                        fill="none" stroke="#1153bc" stroke-miterlimit="10" />
                    <path class="prefix__prefix__shadow-41" data-name="shadow"
                        d="M994.82 690.92a185.42 185.42 0 00-24-2.91c15.35 3.54 17.66 10.73 14.65 26.23-5.79 29.79-25.62 33-25.62 33s-21.53-5.1-26.63-34.21c-2-11.48-.89-20.65 16.24-25a199 199 0 00-24.32 2.9c-14.03 87.42 83.95 85.89 69.68-.01z"
                        opacity=".2" />
                </g>
            </g>
        </g>
        <g class="prefix__prefix__torsh">
            <circle class="prefix__prefix__center-3" cx="1086.39" cy="847.14" r="6.7" fill="#fda415" />
            <circle class="prefix__prefix__center-2" cx="1086.39" cy="847.14" r="5.62" fill="#fde377" />
            <circle class="prefix__prefix__center-1" cx="1086.39" cy="847.14" r="4.15" fill="#fdefd8" />
            <path class="prefix__prefix__pied" fill="none" stroke="#000" stroke-linecap="round" stroke-miterlimit="10"
                d="M1086.39 945.6v-88.67" />
            <path class="prefix__prefix__socle"
                d="M1086.39 856.39c-6 0-9.65-4.32-9.65-9.65H1096c0 5.33-3.58 9.65-9.61 9.65z" fill="#262526" />
            <circle class="prefix__prefix__outer-1" cx="1086.39" cy="847.14" r="28.93" fill="#f4e92c" opacity=".15" />
            <circle class="prefix__prefix__outer-2" cx="1086.39" cy="847.14" r="49.11" fill="#f4e92c" opacity=".1" />
        </g>
        <g class="prefix__prefix__torsh" data-name="torsh">
            <circle class="prefix__prefix__center-3-2" data-name="center-3" cx="833.34" cy="847.14" r="6.7"
                fill="#fda415" />
            <circle class="prefix__prefix__center-2-2" data-name="center-2" cx="833.34" cy="847.14" r="5.62"
                fill="#fde377" />
            <circle class="prefix__prefix__center-1-2" data-name="center-1" cx="833.34" cy="847.14" r="4.15"
                fill="#fdefd8" />
            <path class="prefix__prefix__pied-2" data-name="pied" fill="none" stroke="#000" stroke-linecap="round"
                stroke-miterlimit="10" d="M833.34 945.6v-88.67" />
            <path class="prefix__prefix__socle-2" data-name="socle"
                d="M833.34 856.39c-6 0-9.65-4.32-9.65-9.65H843c0 5.33-3.63 9.65-9.66 9.65z" fill="#262526" />
            <circle class="prefix__prefix__outer-1-2" data-name="outer-1" cx="833.34" cy="847.14" r="28.93"
                fill="#f4e92c" opacity=".15" />
            <circle class="prefix__prefix__outer-2-2" data-name="outer-2" cx="833.34" cy="847.14" r="49.11"
                fill="#f4e92c" opacity=".1" />
        </g>
        <g class="prefix__prefix__door-light">
            <path class="prefix__prefix__door-light-2" data-name="door-light"
                d="M944.21 900v13.08h-8.44v11.26h-8.26v13.36h-8.32c-17 24.63 17 81.09 40.81 81.09s59-56.47 42.09-81.09h-9.42v-13.36h-8.32v-11.26h-8.56V900z"
                fill="#e2d600" opacity=".2" />
        </g>
    </g>
</svg>