<svg xmlns="http://www.w3.org/2000/svg" viewBox="0 0 1920 1080">
    <g class="prefix__prefix__prefix__prefix__horizontal-bottom-general"
        data-svg-origin="-17.1299991607666 545.9400634765625"
        style="translate:none;rotate:none;scale:none;transform-origin:0 0">
        <g class="prefix__prefix__prefix__prefix__ground2" opacity=".6">
            <path class="prefix__prefix__prefix__prefix__right"
                d="M1825.19 815.34v-87.72l12.07-21.17v-21.36q-3.75-.83-7.48-1.51v6.8c-7.25-2.51-17 1.67-14.76-9-7.3.27-15.73-5.15-13.68 5.78-7.52-1.61-16.89 4.4-14.76-6.82-28.46-.21 1.57 7.82-28.45 10v-6.79c-2.5.46-5 1-7.48 1.54v21.36l12.07 21.17v87.72c-165 8.9-369.08 90.15-411.51 350.09h585.41V835.11c-28.04-9.85-66.89-17.34-111.43-19.77z"
                fill="#12436b" />
            <path class="prefix__prefix__prefix__prefix__left"
                d="M194.93 786.76c4.43-13.48-12.31-152.78 14-150.21-15.07-21.43-34-77.28-33.81-79.84-.06.19-.12.38-.17.56-9.65 27.18-13.5 57.82-34 79.29 1.84.65 6.8 1.58 6.8 1.58l7.63 15.3v131.78q-11.1 0-21.79.49c3.74-11.74-10.41-126.19 11.9-124.6-12.78-18.18-28.81-65.59-28.69-67.75l-.14.47c-8.19 23.07-11.46 49.07-28.84 67.3 22.89-2 8.44 116 12.25 127.17C40 795-4.83 811.18-17.13 823v330.32h585.4c-50.99-273.94-226.95-354.94-373.34-366.56z"
                fill="#12436b" />
        </g>
    </g>
</svg>