<svg xmlns="http://www.w3.org/2000/svg" viewBox="0 0 1920 1080" >
    <g class="prefix__prefix__prefix__prefix__prefix__stars" opacity=".7">
        <g class="prefix__prefix__prefix__prefix__prefix__stars-2" data-name="stars" fill="#efefbf">
            <circle cx="72.95" cy="43.88" r="4.15" opacity=".278" />
            <circle cx="49.3" cy="44.3" r="3.74" opacity=".326" />
            <circle cx="15.93" cy="84.79" r="2.99" opacity=".566" />
            <circle cx="57.28" cy="161.53" r="2.42" opacity=".374" />
            <circle cx="41.61" cy="235.13" r="2.75" opacity=".812" />
            <circle cx="9.56" cy="308.05" r="2.75" />
            <circle cx="10.7" cy="388.1" r="2.75" opacity=".458" />
            <circle cx="38.54" cy="442.84" r="2.75" opacity=".16" />
            <circle cx="58.16" cy="462.13" r="3.34" opacity=".115" />
            <circle cx="70.49" cy="477.4" r="3.98" opacity=".124" />
            <circle cx="109.56" cy="493.1" r="5.49" opacity=".18" />
            <circle cx="174.98" cy="525.58" r="3.91" opacity=".169" />
            <circle cx="241.7" cy="467.53" r="4.33" opacity=".759" />
            <circle cx="275.57" cy="318.37" r="3.54" opacity=".345" />
            <circle cx="288.57" cy="201.02" r="2.83" />
            <circle cx="273.62" cy="129.03" r="3.18" opacity=".403" />
            <circle cx="365.12" cy="70.93" r="3.57" opacity=".256" />
            <circle cx="421.12" cy="118.53" r="4.21" opacity=".299" />
            <circle cx="421.91" cy="283.85" r="2.67" />
            <circle cx="438.65" cy="351.34" r="1.93" />
            <circle cx="631.94" cy="247.09" r="2.75" opacity=".613" />
            <circle cx="786.24" cy="133.58" r="3.36" opacity=".416" />
            <circle cx="899.26" cy="133.71" r="1.49" opacity=".42" />
            <circle cx="1097.75" cy="170.75" r="2.79" opacity=".516" />
            <circle cx="1546.42" cy="155.81" r="2.75" opacity=".272" />
            <circle cx="1772.1" cy="119.08" r="3.5" opacity=".211" />
            <circle cx="1917.25" cy="119.64" r="2.75" opacity=".889" />
            <circle cx="1868.65" cy="316.69" r="2.75" opacity=".347" />
            <circle cx="1832.13" cy="374.58" r="2.75" opacity=".59" />
            <circle cx="1750.65" cy="417.25" r="2.75" opacity=".485" />
            <circle cx="1616.45" cy="447.91" r="2.75" opacity=".542" />
            <circle cx="1561.41" cy="477.18" r="3.48" opacity=".757" />
            <circle cx="1460.29" cy="555.95" r="3.32" opacity=".636" />
            <circle cx="1452.6" cy="568.4" r="3.01" opacity=".591" />
            <circle cx="1186.89" cy="406.19" r="2.99" />
            <circle cx="1052.64" cy="378.68" r="4.52" opacity=".197" />
            <circle cx="888.42" cy="377.18" r="2.75" />
            <circle cx="687.06" cy="404.23" r="2.75" />
            <circle cx="589.38" cy="461.24" r="2.75" />
            <circle cx="452.87" cy="519.86" r="2.75" opacity=".706" />
            <circle cx="323.77" cy="690.95" r="3.53" opacity=".525" />
            <circle cx="279.43" cy="700.43" r="3.48" opacity=".42" />
            <circle cx="327.22" cy="420.71" r="3.61" opacity=".444" />
            <circle cx="379.22" cy="325.01" r="3.27" opacity=".316" />
            <circle cx="429.23" cy="247.09" r="2.77" />
            <circle cx="519.18" cy="140.87" r="5.38" opacity=".105" />
            <circle cx="587.79" cy="95.74" r="4.97" opacity=".203" />
            <circle cx="769.85" cy="35.61" r="5.12" opacity=".412" />
            <circle cx="897.92" cy="19.69" r="2.37" opacity=".762" />
            <circle cx="1242.23" cy="20.3" r="2.75" opacity=".385" />
            <circle cx="1392.09" cy="13.81" r="2.75" opacity=".499" />
            <circle cx="1533.57" cy="13.98" r="2.75" opacity=".209" />
            <circle cx="1625.12" cy="16.98" r="2.75" />
            <circle cx="1600.1" cy="70.47" r="2.75" opacity=".626" />
            <circle cx="1415.28" cy="163.28" r="3.58" opacity=".518" />
            <circle cx="1261.41" cy="202.46" r="2.75" opacity=".262" />
            <circle cx="1063" cy="270.26" r="3.01" opacity=".607" />
            <circle cx="998.94" cy="312.45" r="4.74" opacity=".14" />
            <circle cx="1151.05" cy="330.12" r="2.75" />
            <circle cx="1475.78" cy="301.08" r="4.65" opacity=".442" />
            <circle cx="1594.74" cy="274.5" r="4.74" opacity=".286" />
            <circle cx="1643.91" cy="268.03" r="4.24" opacity=".334" />
            <circle cx="1437.01" cy="313.58" r="3.28" opacity=".545" />
            <circle cx="1072.84" cy="356.4" r="4.2" opacity=".193" />
            <circle cx="846.84" cy="357.26" r="2.75" />
            <circle cx="685.68" cy="357.12" r="2.75" />
            <circle cx="583.66" cy="337.24" r="2.75" opacity=".499" />
            <circle cx="485.6" cy="319.58" r="1.94" />
            <circle cx="318.97" cy="374.73" r="4.51" opacity=".107" />
            <circle cx="147.21" cy="485.59" r="4.47" opacity=".319" />
            <circle cx="76.78" cy="566.06" r="4.2" opacity=".261" />
            <circle cx="40.05" cy="637.89" r="3.62" opacity=".216" />
            <circle cx="56.09" cy="681.93" r="3.89" opacity=".304" />
            <circle cx="329.98" cy="784.06" r="2.75" />
            <circle cx="513.82" cy="747.93" r="2.75" />
            <circle cx="748.95" cy="566.29" r="2.75" />
            <circle cx="1189.93" cy="603.56" r="2.75" />
            <circle cx="1356.19" cy="613.64" r="2.75" />
            <circle cx="1473.33" cy="630.42" r="3.79" opacity=".149" />
            <circle cx="1540.01" cy="650.41" r="3.8" opacity=".173" />
            <circle cx="1621.96" cy="675.01" r="3.47" opacity=".768" />
            <circle cx="1689.41" cy="605.53" r="2.75" opacity=".326" />
            <circle cx="1650.13" cy="354.39" r="3.9" opacity=".182" />
            <circle cx="1542.1" cy="170.72" r="2.67" opacity=".315" />
            <circle cx="1394.73" cy="99.18" r="3.91" opacity=".231" />
            <circle cx="967.6" cy="80.26" r="1.65" opacity=".188" />
            <circle cx="757.38" cy="81.04" r="5.61" opacity=".105" />
            <circle cx="595.55" cy="65.38" r="3.85" opacity=".299" />
            <circle cx="433.27" cy="62.97" r="3.98" opacity=".166" />
            <circle cx="309.26" cy="63.1" r="2.75" opacity=".356" />
            <circle cx="184.41" cy="67.17" r="4.26" opacity=".066" />
            <circle cx="116.71" cy="103.99" r="6.41" opacity=".149" />
            <circle cx="131.08" cy="182.26" r="3.96" opacity=".189" />
            <circle cx="170.91" cy="185.16" r="4.5" opacity=".216" />
            <circle cx="197.99" cy="183.13" r="3.96" opacity=".293" />
            <circle cx="139.23" cy="285.26" r="2.07" />
            <circle cx="146.88" cy="286.17" r="2.04" />
        </g>
    </g>
</svg>